<svg width="58" height="60" viewBox="0 0 58 60" fill="none" xmlns="http://www.w3.org/2000/svg">
<path d="M12.3572 13C11.732 13 11.1325 13.2483 10.6904 13.6904C10.2483 14.1325 10 14.732 10 15.3572C10 15.9823 10.2483 16.5819 10.6904 17.024C11.1325 17.466 11.732 17.7144 12.3572 17.7144H38.2861C38.9113 17.7144 39.5109 17.466 39.9529 17.024C40.395 16.5819 40.6433 15.9823 40.6433 15.3572C40.6433 14.732 40.395 14.1325 39.9529 13.6904C39.5109 13.2483 38.9113 13 38.2861 13H12.3572ZM12.3572 22.4287C11.732 22.4287 11.1325 22.6771 10.6904 23.1191C10.2483 23.5612 10 24.1607 10 24.7859C10 25.4111 10.2483 26.0106 10.6904 26.4527C11.1325 26.8947 11.732 27.1431 12.3572 27.1431H28.8574C29.4826 27.1431 30.0821 26.8947 30.5242 26.4527C30.9663 26.0106 31.2146 25.4111 31.2146 24.7859C31.2146 24.1607 30.9663 23.5612 30.5242 23.1191C30.0821 22.6771 29.4826 22.4287 28.8574 22.4287H12.3572ZM12.3572 31.8574C11.732 31.8574 11.1325 32.1058 10.6904 32.5478C10.2483 32.9899 10 33.5894 10 34.2146C10 34.8398 10.2483 35.4393 10.6904 35.8814C11.1325 36.3234 11.732 36.5718 12.3572 36.5718H21.7859C22.4111 36.5718 23.0106 36.3234 23.4527 35.8814C23.8947 35.4393 24.1431 34.8398 24.1431 34.2146C24.1431 33.5894 23.8947 32.9899 23.4527 32.5478C23.0106 32.1058 22.4111 31.8574 21.7859 31.8574H12.3572ZM40.6433 24.7859C40.6433 24.1607 40.395 23.5612 39.9529 23.1191C39.5109 22.6771 38.9113 22.4287 38.2861 22.4287C37.661 22.4287 37.0614 22.6771 36.6194 23.1191C36.1773 23.5612 35.929 24.1607 35.929 24.7859V37.9531L32.8811 34.9053C32.4366 34.4759 31.8411 34.2383 31.2231 34.2437C30.605 34.249 30.0138 34.4969 29.5768 34.934C29.1398 35.371 28.8919 35.9622 28.8865 36.5803C28.8811 37.1983 29.1187 37.7937 29.5481 38.2383L36.6196 45.3099C37.0617 45.7518 37.6611 46 38.2861 46C38.9112 46 39.5106 45.7518 39.9527 45.3099L47.0242 38.2383C47.4536 37.7937 47.6912 37.1983 47.6858 36.5803C47.6804 35.9622 47.4325 35.371 46.9955 34.934C46.5585 34.4969 45.9672 34.249 45.3492 34.2437C44.7312 34.2383 44.1357 34.4759 43.6912 34.9053L40.6433 37.9531V24.7859Z" fill="#4285F4"/>
<path d="M53.7428 25.8372C53.7428 26.5552 53.5564 27.2317 53.1837 27.8668C52.8247 28.4881 52.2862 29.0059 51.5682 29.4201C50.8641 29.8205 50.0288 30.0552 49.0623 30.1243V31.8018H47.7368V30.1036C46.3561 29.9793 45.2446 29.5651 44.4024 28.8609C43.5602 28.143 43.1253 27.1765 43.0977 25.9615H46.2042C46.2871 26.9556 46.7979 27.5562 47.7368 27.7633V23.8076C46.7427 23.559 45.9419 23.3105 45.3344 23.062C44.7269 22.8135 44.2022 22.4131 43.7604 21.8608C43.3186 21.3085 43.0977 20.556 43.0977 19.6033C43.0977 18.4021 43.5257 17.4218 44.3817 16.6625C45.2515 15.9031 46.3699 15.4681 47.7368 15.3577V13.6801H49.0623V15.3577C50.3877 15.4681 51.444 15.8686 52.231 16.5589C53.0318 17.2493 53.4805 18.2019 53.5772 19.4169H50.4499C50.4085 19.0165 50.2635 18.6714 50.015 18.3814C49.7802 18.0777 49.4627 17.8637 49.0623 17.7394V21.6537C50.0978 21.916 50.9124 22.1714 51.5061 22.42C52.1136 22.6547 52.6383 23.0482 53.0801 23.6005C53.5219 24.1389 53.7428 24.8845 53.7428 25.8372ZM46.1214 19.4584C46.1214 19.914 46.2595 20.2868 46.5356 20.5767C46.8117 20.8529 47.2121 21.0807 47.7368 21.2602V17.6773C47.2398 17.7463 46.8463 17.9327 46.5563 18.2365C46.2664 18.5402 46.1214 18.9475 46.1214 19.4584ZM49.0623 27.8047C49.5869 27.708 49.9942 27.494 50.2842 27.1627C50.5879 26.8313 50.7398 26.4309 50.7398 25.9615C50.7398 25.5058 50.5948 25.1399 50.3049 24.8638C50.015 24.5877 49.6007 24.3598 49.0623 24.1804V27.8047Z" fill="#FBBC05"/>
</svg>
