<svg width="58" height="60" viewBox="0 0 58 60" fill="none" xmlns="http://www.w3.org/2000/svg">
<path d="M16 24.5982C16.0021 26.5807 16.4726 28.5346 17.3731 30.3007C18.2737 32.0668 19.5789 33.5951 21.1822 34.761L21.184 34.7628C22.2161 35.5194 23.358 36.1137 24.5698 36.525L24.6616 36.5592C25.344 36.7819 26.0444 36.9451 26.755 37.047C27.3647 37.1445 27.9808 37.1956 28.5982 37.2H28.6C29.23 37.2 29.842 37.1388 30.4486 37.0488L30.7762 36.9984C31.381 36.8922 31.9714 36.7482 32.542 36.561L32.6176 36.5322C37.6 34.8474 41.2 30.1404 41.2 24.5982C41.2 17.652 35.548 12 28.6 12C21.652 12 16 17.652 16 24.5982ZM28.6 15.6C33.5608 15.6 37.6 19.6356 37.6 24.5982H34C33.9981 23.1668 33.4285 21.7946 32.4162 20.7826C31.4038 19.7706 30.0314 19.2014 28.6 19.2V15.6ZM20.5378 38.631V48L28.6 45.3L36.6622 48L36.664 38.631C34.2141 40.0511 31.4326 40.799 28.6009 40.799C25.7692 40.799 22.9877 40.0511 20.5378 38.631Z" fill="#FBBC05"/>
<circle cx="29" cy="24.5" r="13.5" fill="#4285F4"/>
</svg>
