<svg width="58" height="59" viewBox="0 0 58 59" fill="none" xmlns="http://www.w3.org/2000/svg">
<path fill-rule="evenodd" clip-rule="evenodd" d="M27.3977 48C31.7467 48 35.9175 46.2724 38.9927 43.1972C42.0678 40.122 43.7955 35.9512 43.7955 31.6023C43.7955 27.2533 42.0678 23.0825 38.9927 20.0073C35.9175 16.9321 31.7467 15.2045 27.3977 15.2045C23.0488 15.2045 18.878 16.9321 15.8028 20.0073C12.7276 23.0825 11 27.2533 11 31.6023C11 35.9512 12.7276 40.122 15.8028 43.1972C18.878 46.2724 23.0488 48 27.3977 48ZM29.4474 23.4034C29.4474 22.8598 29.2315 22.3384 28.8471 21.954C28.4627 21.5696 27.9413 21.3537 27.3977 21.3537C26.8541 21.3537 26.3328 21.5696 25.9484 21.954C25.564 22.3384 25.348 22.8598 25.348 23.4034V31.6023C25.3481 32.1458 25.5642 32.6671 25.9486 33.0514L31.7452 38.8501C31.9356 39.0405 32.1617 39.1916 32.4105 39.2946C32.6593 39.3977 32.926 39.4507 33.1953 39.4507C33.4647 39.4507 33.7314 39.3977 33.9802 39.2946C34.229 39.1916 34.4551 39.0405 34.6455 38.8501C34.836 38.6596 34.987 38.4335 35.0901 38.1847C35.1932 37.9359 35.2462 37.6692 35.2462 37.3999C35.2462 37.1306 35.1932 36.8639 35.0901 36.615C34.987 36.3662 34.836 36.1401 34.6455 35.9497L29.4474 30.7537V23.4034Z" fill="#4285F4"/>
<circle cx="38.4773" cy="16.9773" r="7.97727" fill="#FBBC05"/>
<path d="M32.4488 14.9398V13.9041H34.2531V18.6591H33.0937V14.9398H32.4488ZM34.976 17.7667C35.1237 17.6495 35.191 17.5952 35.1779 17.6039C35.6035 17.2521 35.9379 16.9634 36.1811 16.7376C36.4286 16.5117 36.637 16.2751 36.8064 16.0276C36.9757 15.78 37.0604 15.539 37.0604 15.3045C37.0604 15.1265 37.0192 14.9875 36.9367 14.8876C36.8542 14.7878 36.7304 14.7378 36.5654 14.7378C36.4004 14.7378 36.2701 14.8008 36.1745 14.9267C36.0834 15.0483 36.0378 15.222 36.0378 15.4478H34.963C34.9717 15.0787 35.0498 14.7704 35.1975 14.5229C35.3495 14.2753 35.5471 14.093 35.7902 13.9757C36.0378 13.8585 36.3113 13.7998 36.611 13.7998C37.1277 13.7998 37.5164 13.9323 37.7769 14.1972C38.0418 14.4621 38.1743 14.8073 38.1743 15.2329C38.1743 15.6975 38.0158 16.1296 37.6988 16.5291C37.3818 16.9243 36.9779 17.3108 36.4872 17.6886H38.2459V18.594H34.976V17.7667ZM42.4617 14.9853C42.8786 14.9853 43.2129 15.1243 43.4648 15.4022C43.7167 15.6758 43.8426 16.0536 43.8426 16.5356V18.6591H42.7352V16.6854C42.7352 16.4423 42.6723 16.2534 42.5463 16.1187C42.4204 15.9841 42.2511 15.9168 42.0383 15.9168C41.8255 15.9168 41.6561 15.9841 41.5302 16.1187C41.4043 16.2534 41.3413 16.4423 41.3413 16.6854V18.6591H40.2274V13.8389H41.3413V15.513C41.4542 15.3523 41.6084 15.2242 41.8038 15.1287C41.9992 15.0331 42.2185 14.9853 42.4617 14.9853Z" fill="white"/>
</svg>
