<svg width="58" height="59" viewBox="0 0 58 59" fill="none" xmlns="http://www.w3.org/2000/svg">
<circle cx="29" cy="29" r="18" stroke="#FBBC05" stroke-width="2" stroke-dasharray="4 4"/>
<path fill-rule="evenodd" clip-rule="evenodd" d="M23.0272 18.528C24.0564 18.4458 25.0334 18.041 25.8192 17.3712C26.7066 16.6153 27.8343 16.2002 29 16.2002C30.1657 16.2002 31.2933 16.6153 32.1808 17.3712C32.9665 18.041 33.9436 18.4458 34.9728 18.528C36.1351 18.6209 37.2263 19.1247 38.0507 19.9492C38.8752 20.7737 39.3791 21.8649 39.472 23.0272C39.5536 24.056 39.9584 25.0336 40.6288 25.8192C41.3846 26.7066 41.7997 27.8343 41.7997 29C41.7997 30.1657 41.3846 31.2933 40.6288 32.1808C39.959 32.9665 39.5541 33.9436 39.472 34.9728C39.3791 36.1351 38.8752 37.2263 38.0507 38.0507C37.2263 38.8752 36.1351 39.3791 34.9728 39.472C33.9436 39.5541 32.9665 39.959 32.1808 40.6288C31.2933 41.3846 30.1657 41.7997 29 41.7997C27.8343 41.7997 26.7066 41.3846 25.8192 40.6288C25.0334 39.959 24.0564 39.5541 23.0272 39.472C21.8649 39.3791 20.7737 38.8752 19.9492 38.0507C19.1247 37.2263 18.6209 36.1351 18.528 34.9728C18.4458 33.9436 18.041 32.9665 17.3712 32.1808C16.6153 31.2933 16.2002 30.1657 16.2002 29C16.2002 27.8343 16.6153 26.7066 17.3712 25.8192C18.041 25.0334 18.4458 24.0564 18.528 23.0272C18.6209 21.8649 19.1247 20.7737 19.9492 19.9492C20.7737 19.1247 21.8649 18.6209 23.0272 18.528ZM34.9312 26.9312C35.2226 26.6294 35.3839 26.2252 35.3802 25.8057C35.3766 25.3862 35.2083 24.9849 34.9117 24.6883C34.615 24.3916 34.2137 24.2233 33.7942 24.2197C33.3747 24.216 32.9705 24.3773 32.6688 24.6688L27.4 29.9376L25.3312 27.8688C25.0294 27.5773 24.6252 27.416 24.2057 27.4197C23.7862 27.4233 23.3849 27.5916 23.0883 27.8883C22.7916 28.1849 22.6233 28.5862 22.6197 29.0057C22.616 29.4252 22.7773 29.8294 23.0688 30.1312L26.2688 33.3312C26.5688 33.6311 26.9757 33.7996 27.4 33.7996C27.8242 33.7996 28.2311 33.6311 28.5312 33.3312L34.9312 26.9312Z" fill="#4285F4"/>
</svg>
