<svg width="572" height="432" viewBox="0 0 572 432" fill="none" xmlns="http://www.w3.org/2000/svg">
<path opacity="0.3" d="M414.114 95.2937C459.874 111.024 503.575 154.009 504.905 209.579C506.235 265.149 491.048 321.734 407.565 343.67C329.158 364.277 143 371.741 93.3794 302.687C46.6041 237.579 61.4904 131.887 143.229 98.0822C200.558 74.3871 324.61 64.6488 414.114 95.2937Z" fill="#E6E6E6"/>
<path d="M438.467 127.783H133.548V320.776H438.467V127.783Z" fill="#428FF5"/>
<path d="M411.998 146.731H159.989V301.829H411.998V146.731Z" fill="#24285B"/>
<path d="M455.412 320.776H119.49V348.775H455.412V320.776Z" fill="#428FF5"/>
<path opacity="0.08" d="M455.412 320.776H119.49V348.775H455.412V320.776Z" fill="black"/>
<path d="M294.823 301.843L309.924 296.051L286.987 236.106L177.949 277.833L187.13 301.843H294.823Z" fill="#FFD200"/>
<path opacity="0.08" d="M294.823 301.843L309.924 296.051L259.088 281.151L239.54 275.416L228.8 292.734L223.166 301.843H294.823Z" fill="black"/>
<path opacity="0.08" d="M287.001 236.106L177.949 277.833L248.348 298.468L287.001 236.106Z" fill="black"/>
<path d="M323.055 138.878L209.251 168.416L225.489 230.979L339.293 201.441L323.055 138.878Z" fill="#FFD200"/>
<path opacity="0.08" d="M339.296 201.428L225.497 230.972L271.157 172.885L339.296 201.428Z" fill="black"/>
<path opacity="0.08" d="M323.051 138.866L209.252 168.41L277.406 196.952L323.051 138.866Z" fill="black"/>
<path d="M423.721 93.0592L316.203 45.4811L290.047 104.589L397.565 152.167L423.721 93.0592Z" fill="#FFD200"/>
<path opacity="0.08" d="M397.582 152.165L290.061 104.589L361.932 87.4573L397.582 152.165Z" fill="#4285F4"/>
<path opacity="0.08" d="M423.738 93.0486L316.216 45.4725L351.88 110.18L423.738 93.0486Z" fill="#4285F4"/>
<path opacity="0.08" d="M315.086 320.776H259.831V334.776H315.086V320.776Z" fill="black"/>
<path opacity="0.08" d="M371.456 187.657V201.185V266.093H438.452V201.185V187.657H371.456Z" fill="black"/>
<path d="M463.478 194.421H378.75V259.329H463.478V194.421Z" fill="#E6E6E6"/>
<path d="M463.478 180.893H378.75V194.421H463.478V180.893Z" fill="#B3B3B3"/>
<path d="M436.665 238.794H441.627C440.071 241.946 437.572 244.534 434.477 246.202C430.323 248.359 425.686 249.418 421.007 249.276C416.446 249.388 411.917 248.499 407.736 246.673C404.186 245.116 401.258 242.419 399.414 239.009C397.591 235.622 396.652 231.83 396.682 227.983C396.663 223.72 397.731 219.521 399.785 215.785C401.701 212.175 404.655 209.221 408.265 207.306C412.068 205.358 416.292 204.376 420.563 204.446C424.174 204.382 427.749 205.166 431.002 206.734C433.925 208.151 436.356 210.413 437.981 213.226C439.58 216.019 440.409 219.187 440.383 222.406C440.41 226.294 439.125 230.078 436.737 233.146C435.419 235.041 433.658 236.584 431.606 237.641C429.555 238.698 427.275 239.236 424.968 239.209C423.97 239.262 422.977 239.029 422.108 238.537C421.444 238.058 420.98 237.35 420.806 236.549C419.981 237.392 418.996 238.062 417.908 238.519C416.82 238.975 415.651 239.21 414.472 239.209C413.273 239.241 412.082 239.02 410.975 238.559C409.868 238.098 408.872 237.408 408.051 236.535C407.172 235.572 406.495 234.444 406.058 233.216C405.621 231.989 405.433 230.686 405.505 229.385C405.476 225.811 406.549 222.315 408.58 219.375C409.558 217.707 410.952 216.323 412.627 215.357C414.302 214.392 416.199 213.879 418.132 213.869C419.344 213.795 420.554 214.051 421.632 214.61C422.71 215.169 423.616 216.01 424.253 217.044L424.839 214.456H430.988L427.413 231.287C427.253 231.959 427.144 232.643 427.084 233.332C427.064 233.646 427.16 233.957 427.356 234.204C427.434 234.298 427.533 234.374 427.644 234.426C427.755 234.478 427.877 234.505 427.999 234.504C429.076 234.329 430.074 233.831 430.859 233.074C432.497 231.853 433.82 230.26 434.72 228.427C435.667 226.505 436.156 224.391 436.15 222.249C436.189 220.448 435.838 218.659 435.123 217.006C434.407 215.352 433.343 213.873 432.003 212.668C429.248 210.094 425.392 208.807 420.435 208.807C416.698 208.689 412.999 209.578 409.724 211.381C406.827 213.059 404.52 215.591 403.117 218.631C401.649 221.662 400.886 224.987 400.887 228.355C400.853 231.508 401.711 234.606 403.36 237.293C404.99 239.958 407.438 242.025 410.339 243.184C416.724 245.536 423.72 245.642 430.173 243.485C432.724 242.542 434.969 240.92 436.665 238.794ZM411.483 229.213C411.373 230.739 411.798 232.256 412.684 233.503C413.037 233.95 413.487 234.311 414 234.559C414.512 234.806 415.075 234.934 415.644 234.933C416.522 234.937 417.385 234.71 418.147 234.275C418.809 233.907 419.4 233.422 419.891 232.845C420.863 231.614 421.586 230.205 422.022 228.698C422.591 227.06 422.896 225.342 422.923 223.608C423.015 222.159 422.578 220.726 421.693 219.575C421.32 219.119 420.848 218.753 420.313 218.506C419.778 218.258 419.194 218.135 418.604 218.145C417.215 218.168 415.888 218.726 414.901 219.704C413.663 220.912 412.778 222.435 412.341 224.108C411.811 225.76 411.522 227.479 411.483 229.213Z" fill="#B3B3B3"/>
<path opacity="0.08" d="M177.106 187.3H133.405V237.092H177.106V187.3Z" fill="black"/>
<path d="M171.399 179.578H118.218V229.37H171.399V179.578Z" fill="#E6E6E6"/>
<path d="M156.041 200.141L144.801 188.53L133.562 200.141H138.71V220.433H150.893V200.141H156.041Z" fill="#B3B3B3"/>
<circle cx="471" cy="37.5567" r="16" fill="#4285F4"/>
<circle cx="144.5" cy="40.0567" r="10.5" fill="#FBBC05"/>
<circle cx="243" cy="62.5567" r="6" fill="#EA4335"/>
<path d="M93.5178 175.839L59.9102 155.721L94.1364 136.675L93.5178 175.839Z" fill="#FBBC05"/>
</svg>
