<svg width="494" height="456" viewBox="0 0 494 456" fill="none" xmlns="http://www.w3.org/2000/svg">
<circle opacity="0.3" cx="220" cy="220" r="219.25" stroke="#4285F4" stroke-width="1.5" stroke-linecap="round" stroke-dasharray="13 13"/>
<circle opacity="0.1" cx="219.5" cy="220.5" r="184.5" fill="#4285F4"/>
<g filter="url(#filter0_d_66_524)">
<rect x="129" y="129" width="182" height="182" rx="20.0909" fill="white"/>
</g>
<g clip-path="url(#clip0_66_524)">
<path d="M219.648 252.204C244.808 252.204 265.203 231.808 265.203 206.649C265.203 181.49 244.808 161.094 219.648 161.094C194.489 161.094 174.094 181.49 174.094 206.649C174.094 231.808 194.489 252.204 219.648 252.204Z" stroke="#4285F4" stroke-width="12.1885"/>
<path d="M222.422 183.061L222.422 183.061C219.022 181.496 214.997 182.984 213.433 186.384L173.502 273.16C171.938 276.56 173.426 280.585 176.826 282.149C180.226 283.714 184.25 282.226 185.815 278.826L225.745 192.05C227.31 188.65 225.822 184.625 222.422 183.061Z" fill="#FBBC05"/>
<path d="M216.895 183.061L216.895 183.061C220.295 181.496 224.32 182.984 225.885 186.384L265.816 273.162C267.38 276.562 265.892 280.586 262.492 282.151C259.092 283.715 255.068 282.227 253.503 278.827L213.572 192.05C212.007 188.65 213.495 184.625 216.895 183.061Z" fill="#FBBC05"/>
</g>
<g filter="url(#filter1_d_66_524)">
<rect x="21" y="18" width="108" height="108" rx="11.9221" fill="white"/>
</g>
<g clip-path="url(#clip1_66_524)">
<path d="M75.4789 100.377C90.887 100.377 103.378 87.8867 103.378 72.4786C103.378 57.0705 90.887 44.5798 75.4789 44.5798C60.0708 44.5798 47.5801 57.0705 47.5801 72.4786C47.5801 87.8867 60.0708 100.377 75.4789 100.377Z" stroke="#4285F4" stroke-width="5.57976" stroke-linecap="round" stroke-linejoin="round"/>
<circle cx="99" cy="49" r="10" fill="#FBBC05"/>
<path d="M47.5801 72.4786H103.378" stroke="#4285F4" stroke-width="5.57976" stroke-linecap="round" stroke-linejoin="round"/>
<path d="M75.4789 44.5798C82.4571 52.2195 86.4229 62.1338 86.6384 72.4786C86.4229 82.8234 82.4571 92.7377 75.4789 100.377C68.5006 92.7377 64.5348 82.8234 64.3193 72.4786C64.5348 62.1338 68.5006 52.2195 75.4789 44.5798V44.5798Z" stroke="#4285F4" stroke-width="5.57976" stroke-linecap="round" stroke-linejoin="round"/>
</g>
<g filter="url(#filter2_d_66_524)">
<rect x="283" y="325" width="108" height="108" rx="11.9221" fill="white"/>
</g>
<path d="M326.235 383.619L322.958 408.292L336.5 400.167L350.041 408.292L346.764 383.592" stroke="#4285F4" stroke-width="5.41667" stroke-linecap="round" stroke-linejoin="round"/>
<path d="M336.5 386.625C346.971 386.625 355.459 378.137 355.459 367.667C355.459 357.196 346.971 348.708 336.5 348.708C326.03 348.708 317.542 357.196 317.542 367.667C317.542 378.137 326.03 386.625 336.5 386.625Z" stroke="#FBBC05" stroke-width="5.41667" stroke-linecap="round" stroke-linejoin="round"/>
<g filter="url(#filter3_d_66_524)">
<rect x="325" y="55" width="143" height="143" rx="15.7857" fill="white"/>
</g>
<path d="M397 147.583L418.583 126L427.833 135.25L406.25 156.833L397 147.583Z" stroke="#4285F4" stroke-width="6.16667" stroke-linecap="round" stroke-linejoin="round"/>
<path d="M415.499 129.083L410.874 105.958L366.166 95.1667L376.958 139.875L400.083 144.5L415.499 129.083Z" stroke="#FBBC05" stroke-width="6.16667" stroke-linecap="round" stroke-linejoin="round"/>
<path d="M366.166 95.1667L389.556 118.557" stroke="#FBBC05" stroke-width="6.16667" stroke-linecap="round" stroke-linejoin="round"/>
<path d="M393.916 129.083C397.321 129.083 400.082 126.322 400.082 122.917C400.082 119.511 397.321 116.75 393.916 116.75C390.51 116.75 387.749 119.511 387.749 122.917C387.749 126.322 390.51 129.083 393.916 129.083Z" stroke="#4285F4" stroke-width="6.16667" stroke-linecap="round" stroke-linejoin="round"/>
<g filter="url(#filter4_d_66_524)">
<rect x="40" y="300" width="80" height="80" rx="8.83117" fill="white"/>
</g>
<path d="M82.7027 322.523C82.7027 321.854 82.4369 321.212 81.9639 320.739C81.4908 320.266 80.8492 320 80.1802 320C79.5112 320 78.8696 320.266 78.3965 320.739C77.9234 321.212 77.6577 321.854 77.6577 322.523V325.045C77.6577 325.714 77.9234 326.356 78.3965 326.829C78.8696 327.302 79.5112 327.568 80.1802 327.568C80.8492 327.568 81.4908 327.302 81.9639 326.829C82.4369 326.356 82.7027 325.714 82.7027 325.045V322.523ZM94.4501 329.477C94.9096 329.001 95.1638 328.364 95.1581 327.703C95.1524 327.041 94.8871 326.409 94.4194 325.941C93.9517 325.473 93.319 325.208 92.6576 325.202C91.9962 325.197 91.359 325.451 90.8832 325.91L89.0998 327.694C88.6403 328.169 88.3861 328.807 88.3918 329.468C88.3976 330.129 88.6629 330.762 89.1306 331.23C89.5982 331.698 90.2309 331.963 90.8923 331.969C91.5537 331.974 92.1909 331.72 92.6667 331.261L94.4501 329.477ZM100.36 340.18C100.36 340.849 100.095 341.491 99.6215 341.964C99.1485 342.437 98.5069 342.703 97.8378 342.703H95.3153C94.6463 342.703 94.0047 342.437 93.5316 341.964C93.0586 341.491 92.7928 340.849 92.7928 340.18C92.7928 339.511 93.0586 338.87 93.5316 338.396C94.0047 337.923 94.6463 337.658 95.3153 337.658H97.8378C98.5069 337.658 99.1485 337.923 99.6215 338.396C100.095 338.87 100.36 339.511 100.36 340.18ZM67.6937 331.261C67.9264 331.501 68.2047 331.694 68.5125 331.826C68.8203 331.958 69.1513 332.028 69.4862 332.031C69.8211 332.033 70.1533 331.97 70.4633 331.843C70.7733 331.716 71.055 331.529 71.2918 331.292C71.5287 331.055 71.716 330.773 71.8428 330.463C71.9696 330.153 72.0335 329.821 72.0305 329.486C72.0276 329.151 71.958 328.82 71.8258 328.512C71.6936 328.205 71.5015 327.926 71.2605 327.694L69.4771 325.91C69.0014 325.451 68.3642 325.197 67.7028 325.202C67.0414 325.208 66.4087 325.473 65.941 325.941C65.4733 326.409 65.208 327.041 65.2023 327.703C65.1965 328.364 65.4508 329.001 65.9103 329.477L67.6937 331.261ZM67.5676 340.18C67.5676 340.849 67.3018 341.491 66.8287 341.964C66.3557 342.437 65.7141 342.703 65.045 342.703H62.5225C61.8535 342.703 61.2119 342.437 60.7388 341.964C60.2658 341.491 60 340.849 60 340.18C60 339.511 60.2658 338.87 60.7388 338.396C61.2119 337.923 61.8535 337.658 62.5225 337.658H65.045C65.7141 337.658 66.3557 337.923 66.8287 338.396C67.3018 338.87 67.5676 339.511 67.5676 340.18ZM85.2252 350.27C85.2631 349.413 85.7499 348.641 86.4285 348.103C88.0749 346.805 89.2759 345.026 89.8645 343.013C90.4532 341.001 90.4002 338.855 89.713 336.874C89.0259 334.893 87.7386 333.175 86.0302 331.96C84.3217 330.744 82.277 330.091 80.1802 330.091C78.0834 330.091 76.0386 330.744 74.3302 331.96C72.6218 333.175 71.3345 334.893 70.6473 336.874C69.9602 338.855 69.9072 341.001 70.4959 343.013C71.0845 345.026 72.2855 346.805 73.9319 348.103C74.613 348.641 75.0973 349.413 75.1326 350.27H85.2278H85.2252Z" fill="#4285F4"/>
<path d="M75.1348 352.432V354.955C75.1348 356.293 75.6663 357.576 76.6124 358.522C77.5586 359.468 78.8418 360 80.1798 360C81.5178 360 82.8011 359.468 83.7472 358.522C84.6933 357.576 85.2249 356.293 85.2249 354.955V352.432H75.1348Z" fill="#FBBC05"/>
<defs>
<filter id="filter0_d_66_524" x="95.9091" y="100.636" width="248.182" height="248.182" filterUnits="userSpaceOnUse" color-interpolation-filters="sRGB">
<feFlood flood-opacity="0" result="BackgroundImageFix"/>
<feColorMatrix in="SourceAlpha" type="matrix" values="0 0 0 0 0 0 0 0 0 0 0 0 0 0 0 0 0 0 127 0" result="hardAlpha"/>
<feOffset dy="4.72727"/>
<feGaussianBlur stdDeviation="16.5455"/>
<feComposite in2="hardAlpha" operator="out"/>
<feColorMatrix type="matrix" values="0 0 0 0 0 0 0 0 0 0 0 0 0 0 0 0 0 0 0.09 0"/>
<feBlend mode="normal" in2="BackgroundImageFix" result="effect1_dropShadow_66_524"/>
<feBlend mode="normal" in="SourceGraphic" in2="effect1_dropShadow_66_524" result="shape"/>
</filter>
<filter id="filter1_d_66_524" x="1.36364" y="1.16883" width="147.273" height="147.273" filterUnits="userSpaceOnUse" color-interpolation-filters="sRGB">
<feFlood flood-opacity="0" result="BackgroundImageFix"/>
<feColorMatrix in="SourceAlpha" type="matrix" values="0 0 0 0 0 0 0 0 0 0 0 0 0 0 0 0 0 0 127 0" result="hardAlpha"/>
<feOffset dy="2.80519"/>
<feGaussianBlur stdDeviation="9.81818"/>
<feComposite in2="hardAlpha" operator="out"/>
<feColorMatrix type="matrix" values="0 0 0 0 0 0 0 0 0 0 0 0 0 0 0 0 0 0 0.09 0"/>
<feBlend mode="normal" in2="BackgroundImageFix" result="effect1_dropShadow_66_524"/>
<feBlend mode="normal" in="SourceGraphic" in2="effect1_dropShadow_66_524" result="shape"/>
</filter>
<filter id="filter2_d_66_524" x="263.364" y="308.169" width="147.273" height="147.273" filterUnits="userSpaceOnUse" color-interpolation-filters="sRGB">
<feFlood flood-opacity="0" result="BackgroundImageFix"/>
<feColorMatrix in="SourceAlpha" type="matrix" values="0 0 0 0 0 0 0 0 0 0 0 0 0 0 0 0 0 0 127 0" result="hardAlpha"/>
<feOffset dy="2.80519"/>
<feGaussianBlur stdDeviation="9.81818"/>
<feComposite in2="hardAlpha" operator="out"/>
<feColorMatrix type="matrix" values="0 0 0 0 0 0 0 0 0 0 0 0 0 0 0 0 0 0 0.09 0"/>
<feBlend mode="normal" in2="BackgroundImageFix" result="effect1_dropShadow_66_524"/>
<feBlend mode="normal" in="SourceGraphic" in2="effect1_dropShadow_66_524" result="shape"/>
</filter>
<filter id="filter3_d_66_524" x="299" y="32.7143" width="195" height="195" filterUnits="userSpaceOnUse" color-interpolation-filters="sRGB">
<feFlood flood-opacity="0" result="BackgroundImageFix"/>
<feColorMatrix in="SourceAlpha" type="matrix" values="0 0 0 0 0 0 0 0 0 0 0 0 0 0 0 0 0 0 127 0" result="hardAlpha"/>
<feOffset dy="3.71429"/>
<feGaussianBlur stdDeviation="13"/>
<feComposite in2="hardAlpha" operator="out"/>
<feColorMatrix type="matrix" values="0 0 0 0 0 0 0 0 0 0 0 0 0 0 0 0 0 0 0.09 0"/>
<feBlend mode="normal" in2="BackgroundImageFix" result="effect1_dropShadow_66_524"/>
<feBlend mode="normal" in="SourceGraphic" in2="effect1_dropShadow_66_524" result="shape"/>
</filter>
<filter id="filter4_d_66_524" x="25.4545" y="287.532" width="109.091" height="109.091" filterUnits="userSpaceOnUse" color-interpolation-filters="sRGB">
<feFlood flood-opacity="0" result="BackgroundImageFix"/>
<feColorMatrix in="SourceAlpha" type="matrix" values="0 0 0 0 0 0 0 0 0 0 0 0 0 0 0 0 0 0 127 0" result="hardAlpha"/>
<feOffset dy="2.07792"/>
<feGaussianBlur stdDeviation="7.27273"/>
<feComposite in2="hardAlpha" operator="out"/>
<feColorMatrix type="matrix" values="0 0 0 0 0 0 0 0 0 0 0 0 0 0 0 0 0 0 0.09 0"/>
<feBlend mode="normal" in2="BackgroundImageFix" result="effect1_dropShadow_66_524"/>
<feBlend mode="normal" in="SourceGraphic" in2="effect1_dropShadow_66_524" result="shape"/>
</filter>
<clipPath id="clip0_66_524">
<rect width="103.452" height="130" fill="white" transform="translate(168 155)"/>
</clipPath>
<clipPath id="clip1_66_524">
<rect width="66.9572" height="66.9572" fill="white" transform="translate(42 39)"/>
</clipPath>
</defs>
</svg>
