<svg width="406" height="306" viewBox="0 0 406 306" fill="none" xmlns="http://www.w3.org/2000/svg">
<path opacity="0.3" d="M287.519 54.1187C318.223 64.0454 342.045 91.9681 348.236 126.874C353.443 156.309 344.796 192.463 294.33 209.261C242.819 226.395 98.7799 234.636 72.0448 186.931C45.3097 139.226 50.8719 78.0524 105.783 56.3517C144.282 41.1369 227.533 34.7221 287.519 54.1187Z" fill="#E6E6E6"/>
<path d="M159.477 180.74C158.4 180.74 157.368 180.312 156.606 179.551C155.845 178.789 155.417 177.757 155.417 176.68V159.425C155.412 143.319 161.124 127.734 171.535 115.445C172.242 114.662 173.226 114.184 174.279 114.114C175.331 114.043 176.37 114.385 177.175 115.067C177.98 115.749 178.487 116.718 178.59 117.768C178.693 118.818 178.384 119.867 177.727 120.693C168.565 131.497 163.531 145.199 163.517 159.364V176.619C163.525 177.156 163.426 177.688 163.227 178.187C163.028 178.685 162.732 179.139 162.356 179.522C161.981 179.905 161.533 180.21 161.039 180.419C160.544 180.628 160.014 180.737 159.477 180.74Z" fill="#428FF5"/>
<path d="M246.523 180.74C245.446 180.74 244.414 180.312 243.652 179.551C242.891 178.789 242.463 177.757 242.463 176.68V159.425C242.449 145.26 237.414 131.558 228.253 120.753C227.549 119.93 227.201 118.86 227.286 117.78C227.371 116.7 227.881 115.697 228.705 114.993C229.528 114.289 230.598 113.942 231.678 114.026C232.759 114.111 233.761 114.621 234.465 115.445C244.863 127.718 250.573 143.279 250.583 159.364V176.619C250.591 177.157 250.492 177.692 250.292 178.191C250.091 178.691 249.793 179.146 249.416 179.529C249.038 179.913 248.588 180.217 248.091 180.425C247.594 180.633 247.061 180.74 246.523 180.74Z" fill="#428FF5"/>
<g opacity="0.08">
<path opacity="0.08" d="M159.477 180.74C158.4 180.74 157.368 180.312 156.606 179.551C155.845 178.789 155.417 177.757 155.417 176.68V159.425C155.412 143.319 161.124 127.734 171.535 115.445C172.242 114.662 173.226 114.184 174.279 114.114C175.331 114.043 176.37 114.385 177.175 115.067C177.98 115.749 178.487 116.718 178.59 117.768C178.693 118.818 178.384 119.867 177.727 120.693C168.565 131.497 163.531 145.199 163.517 159.364V176.619C163.525 177.156 163.426 177.688 163.227 178.187C163.028 178.685 162.732 179.139 162.356 179.522C161.981 179.905 161.533 180.21 161.039 180.419C160.544 180.628 160.014 180.737 159.477 180.74Z" fill="black"/>
<path opacity="0.08" d="M246.523 180.74C245.446 180.74 244.414 180.312 243.652 179.551C242.891 178.789 242.463 177.757 242.463 176.68V159.425C242.449 145.26 237.414 131.558 228.253 120.753C227.549 119.93 227.201 118.86 227.286 117.78C227.371 116.7 227.881 115.697 228.705 114.993C229.528 114.289 230.598 113.941 231.678 114.026C232.759 114.111 233.761 114.621 234.465 115.445C244.863 127.718 250.573 143.279 250.583 159.364V176.619C250.591 177.157 250.492 177.692 250.292 178.191C250.091 178.691 249.793 179.146 249.416 179.529C249.038 179.913 248.588 180.217 248.091 180.425C247.594 180.633 247.061 180.74 246.523 180.74Z" fill="black"/>
</g>
<path d="M297.05 83.9191V73.83H291.975V83.98C290.575 84.0118 289.243 84.5905 288.264 85.5921C287.285 86.5937 286.737 87.9387 286.737 89.3392V112.796C286.737 114.221 287.303 115.588 288.309 116.596C289.316 117.605 290.682 118.173 292.107 118.175H296.887C298.314 118.175 299.682 117.609 300.691 116.6C301.7 115.591 302.267 114.223 302.267 112.796V89.2783C302.267 87.8812 301.722 86.5392 300.748 85.5381C299.773 84.5371 298.446 83.9561 297.05 83.9191Z" fill="#428FF5"/>
<path opacity="0.08" d="M297.05 83.9191V73.83H291.975V83.98C290.575 84.0118 289.243 84.5905 288.264 85.5921C287.285 86.5937 286.737 87.9387 286.737 89.3392V112.796C286.737 114.221 287.303 115.588 288.309 116.596C289.316 117.605 290.682 118.173 292.107 118.175H296.887C298.314 118.175 299.682 117.609 300.691 116.6C301.7 115.591 302.267 114.223 302.267 112.796V89.2783C302.267 87.8812 301.722 86.5392 300.748 85.5381C299.773 84.5371 298.446 83.9561 297.05 83.9191Z" fill="black"/>
<path d="M114.005 83.9191V73.83H108.93V83.98C107.53 84.0118 106.198 84.5905 105.219 85.5921C104.24 86.5937 103.692 87.9387 103.692 89.3392V112.796C103.692 114.223 104.259 115.591 105.268 116.6C106.277 117.609 107.645 118.175 109.072 118.175H113.842C115.269 118.175 116.637 117.609 117.646 116.6C118.655 115.591 119.222 114.223 119.222 112.796V89.2783C119.222 87.8812 118.677 86.5392 117.703 85.5381C116.728 84.5371 115.401 83.9561 114.005 83.9191Z" fill="#428FF5"/>
<path opacity="0.08" d="M114.005 83.9191V73.83H108.93V83.98C107.53 84.0118 106.198 84.5905 105.219 85.5921C104.24 86.5937 103.692 87.9387 103.692 89.3392V112.796C103.692 114.223 104.259 115.591 105.268 116.6C106.277 117.609 107.645 118.175 109.072 118.175H113.842C115.269 118.175 116.637 117.609 117.646 116.6C118.655 115.591 119.222 114.223 119.222 112.796V89.2783C119.222 87.8812 118.677 86.5392 117.703 85.5381C116.728 84.5371 115.401 83.9561 114.005 83.9191Z" fill="black"/>
<path d="M135.523 76.5197H87.4427C86.2991 76.5197 85.3721 77.4468 85.3721 78.5903C85.3721 79.7339 86.2991 80.6609 87.4427 80.6609H135.523C136.667 80.6609 137.594 79.7339 137.594 78.5903C137.594 77.4468 136.667 76.5197 135.523 76.5197Z" fill="#428FF5"/>
<path d="M318.568 76.5197H270.488C269.344 76.5197 268.417 77.4468 268.417 78.5903C268.417 79.7339 269.344 80.6609 270.488 80.6609H318.568C319.712 80.6609 320.639 79.7339 320.639 78.5903C320.639 77.4468 319.712 76.5197 318.568 76.5197Z" fill="#428FF5"/>
<path d="M189.866 126.864L192.434 134.395C192.982 136.009 195.124 137.156 197.59 137.156H199.235V140.201H206.766V137.156H208.41C210.877 137.156 213.018 136.009 213.566 134.395L216.134 126.864H189.866Z" fill="#428FF5"/>
<path opacity="0.08" d="M189.866 126.864L192.434 134.395C192.982 136.009 195.124 137.156 197.59 137.156H199.235V140.201H206.766V137.156H208.41C210.877 137.156 213.018 136.009 213.566 134.395L216.134 126.864H189.866Z" fill="black"/>
<path d="M219.96 140.15H186.039V160.481H219.96V140.15Z" fill="#CCCCCC"/>
<path d="M203 156.593C206.784 156.593 209.851 153.526 209.851 149.742C209.851 145.958 206.784 142.891 203 142.891C199.216 142.891 196.148 145.958 196.148 149.742C196.148 153.526 199.216 156.593 203 156.593Z" fill="#E6E6E6"/>
<path d="M242.23 170.042H163.771V225.319H242.23V170.042Z" fill="#FFD200"/>
<path d="M220 188H186V208H220V188Z" fill="#24285B"/>
<path d="M220 188H186L203 201L220 188Z" fill="#DFDFDF"/>
<path d="M250.746 80.6609H155.254C147.883 80.6609 141.907 86.6367 141.907 94.0082V113.516C141.907 120.888 147.883 126.864 155.254 126.864H250.746C258.117 126.864 264.093 120.888 264.093 113.516V94.0082C264.093 86.6367 258.117 80.6609 250.746 80.6609Z" fill="#428FF5"/>
<path d="M103.094 93.8763H167.749V109.426H103.094C101.138 109.423 99.2623 108.645 97.8791 107.262C96.4958 105.879 95.7175 104.003 95.7148 102.047V101.235C95.7229 99.2823 96.5035 97.4122 97.8862 96.0333C99.2689 94.6544 101.141 93.8789 103.094 93.8763Z" fill="#428FF5"/>
<path d="M302.907 109.436L238.251 109.436V93.8864L302.907 93.8864C304.866 93.8864 306.746 94.6649 308.132 96.0507C309.517 97.4364 310.296 99.3159 310.296 101.276V102.077C310.288 104.032 309.506 105.904 308.121 107.283C306.736 108.662 304.861 109.436 302.907 109.436Z" fill="#428FF5"/>
<path d="M189.135 66.928H216.865C219.888 66.928 222.787 68.1289 224.925 70.2665C227.062 72.4042 228.263 75.3034 228.263 78.3265V80.661H177.736V78.3265C177.736 75.3034 178.937 72.4042 181.075 70.2665C183.212 68.1289 186.112 66.928 189.135 66.928Z" fill="#428FF5"/>
<path opacity="0.08" d="M189.135 66.928H216.865C219.888 66.928 222.787 68.1289 224.925 70.2665C227.062 72.4042 228.263 75.3034 228.263 78.3265V80.661H177.736V78.3265C177.736 75.3034 178.937 72.4042 181.075 70.2665C183.212 68.1289 186.112 66.928 189.135 66.928Z" fill="black"/>
<path opacity="0.46" d="M235.013 90.5065H170.987C168.627 90.5065 166.714 92.4196 166.714 94.7796V94.7898C166.714 97.1498 168.627 99.0629 170.987 99.0629H235.013C237.373 99.0629 239.286 97.1498 239.286 94.7898V94.7796C239.286 92.4196 237.373 90.5065 235.013 90.5065Z" fill="white"/>
<path opacity="0.45" d="M203 263.95C251.332 263.95 290.513 258.192 290.513 251.09C290.513 243.987 251.332 238.23 203 238.23C154.667 238.23 115.486 243.987 115.486 251.09C115.486 258.192 154.667 263.95 203 263.95Z" fill="#E6E6E6"/>
<circle cx="364" cy="28" r="14" fill="#4285F4"/>
<circle cx="90.5" cy="19.5" r="5.5" fill="#FBBC05"/>
<circle cx="349.5" cy="137.5" r="5.5" fill="#34A853"/>
<path d="M74.5541 108.249L71.9877 135.843L49.374 119.823L74.5541 108.249Z" fill="#FBBC05"/>
</svg>
