<svg width="128" height="48" viewBox="0 0 128 48" fill="none" xmlns="http://www.w3.org/2000/svg">
<path d="M53.0308 29.5871C52.0032 29.5871 51.0657 29.3488 50.2183 28.8721C49.3709 28.3848 48.6982 27.7121 48.2003 26.8541C47.713 25.9855 47.4694 25.0109 47.4694 23.9304C47.4694 22.8499 47.713 21.8806 48.2003 21.0226C48.6982 20.154 49.3709 19.4813 50.2183 19.0046C51.0657 18.5173 52.0032 18.2737 53.0308 18.2737C54.0689 18.2737 55.0117 18.5173 55.8591 19.0046C56.7066 19.4813 57.3739 20.1487 57.8612 21.0067C58.3485 21.8647 58.5921 22.8393 58.5921 23.9304C58.5921 25.0215 58.3485 25.9961 57.8612 26.8541C57.3739 27.7121 56.7066 28.3848 55.8591 28.8721C55.0117 29.3488 54.0689 29.5871 53.0308 29.5871ZM53.0308 28.3318C53.8041 28.3318 54.4979 28.1518 55.1123 27.7916C55.7373 27.4314 56.2246 26.9177 56.5742 26.2503C56.9343 25.5829 57.1144 24.8096 57.1144 23.9304C57.1144 23.0406 56.9343 22.2673 56.5742 21.6105C56.2246 20.9431 55.7426 20.4294 55.1282 20.0692C54.5138 19.709 53.8147 19.529 53.0308 19.529C52.2469 19.529 51.5477 19.709 50.9333 20.0692C50.3189 20.4294 49.8317 20.9431 49.4715 21.6105C49.1219 22.2673 48.9471 23.0406 48.9471 23.9304C48.9471 24.8096 49.1219 25.5829 49.4715 26.2503C49.8317 26.9177 50.3189 27.4314 50.9333 27.7916C51.5583 28.1518 52.2575 28.3318 53.0308 28.3318ZM64.7436 20.6095C65.8029 20.6095 66.6609 20.9326 67.3177 21.5787C67.9745 22.2143 68.3028 23.1359 68.3028 24.3435V29.4759H66.8728V24.5501C66.8728 23.6815 66.6556 23.0194 66.2213 22.5639C65.787 22.0978 65.1938 21.8647 64.4417 21.8647C63.6789 21.8647 63.0698 22.1031 62.6143 22.5798C62.1694 23.0565 61.947 23.7503 61.947 24.6613V29.4759H60.501V20.7684H61.947V22.0078C62.233 21.5628 62.6196 21.2186 63.1069 20.9749C63.6048 20.7313 64.1503 20.6095 64.7436 20.6095ZM78.6096 24.7884C78.6096 25.0639 78.5937 25.3552 78.562 25.6624H71.6023C71.6553 26.5204 71.9466 27.1931 72.4762 27.6804C73.0165 28.157 73.668 28.3954 74.4307 28.3954C75.0557 28.3954 75.5747 28.2524 75.9878 27.9664C76.4116 27.6698 76.7082 27.2778 76.8777 26.7905H78.4349C78.2018 27.6274 77.7357 28.3106 77.0366 28.8403C76.3374 29.3594 75.4688 29.6189 74.4307 29.6189C73.6044 29.6189 72.8629 29.4335 72.2061 29.0628C71.5599 28.692 71.0515 28.1676 70.6807 27.4897C70.3099 26.8011 70.1246 26.0066 70.1246 25.1062C70.1246 24.2058 70.3046 23.4166 70.6648 22.7387C71.025 22.0607 71.5281 21.5417 72.1743 21.1815C72.8311 20.8107 73.5832 20.6254 74.4307 20.6254C75.2569 20.6254 75.9878 20.8054 76.6234 21.1656C77.259 21.5258 77.7463 22.0236 78.0853 22.6592C78.4349 23.2842 78.6096 23.994 78.6096 24.7884ZM77.116 24.4865C77.116 23.9357 76.9942 23.4643 76.7505 23.0724C76.5069 22.6698 76.1732 22.3679 75.7495 22.1666C75.3364 21.9548 74.8756 21.8489 74.3671 21.8489C73.6362 21.8489 73.0112 22.0819 72.4921 22.548C71.9837 23.0141 71.6923 23.6603 71.6182 24.4865H77.116ZM88.2979 21.9601H86.4705V29.4759H85.0246V21.9601H83.8964V20.7684H85.0246V20.1487C85.0246 19.1741 85.2735 18.4644 85.7714 18.0194C86.2799 17.5639 87.0902 17.3362 88.2025 17.3362V18.5438C87.5669 18.5438 87.1167 18.6709 86.8519 18.9252C86.5977 19.1688 86.4705 19.5766 86.4705 20.1487V20.7684H88.2979V21.9601ZM93.7814 29.6189C92.9657 29.6189 92.2242 29.4335 91.5568 29.0628C90.9001 28.692 90.381 28.1676 89.9997 27.4897C89.6289 26.8011 89.4435 26.0066 89.4435 25.1062C89.4435 24.2164 89.6342 23.4325 90.0156 22.7546C90.4075 22.066 90.9372 21.5417 91.6045 21.1815C92.2719 20.8107 93.0187 20.6254 93.845 20.6254C94.6712 20.6254 95.418 20.8107 96.0854 21.1815C96.7528 21.5417 97.2771 22.0607 97.6585 22.7387C98.0504 23.4166 98.2464 24.2058 98.2464 25.1062C98.2464 26.0066 98.0451 26.8011 97.6426 27.4897C97.2506 28.1676 96.7157 28.692 96.0377 29.0628C95.3598 29.4335 94.6077 29.6189 93.7814 29.6189ZM93.7814 28.3477C94.3005 28.3477 94.7877 28.2259 95.2432 27.9823C95.6988 27.7386 96.0642 27.3732 96.3396 26.8859C96.6256 26.3986 96.7687 25.8054 96.7687 25.1062C96.7687 24.4071 96.6309 23.8139 96.3555 23.3266C96.0801 22.8393 95.7199 22.4791 95.275 22.2461C94.8301 22.0025 94.3481 21.8806 93.8291 21.8806C93.2994 21.8806 92.8121 22.0025 92.3672 22.2461C91.9329 22.4791 91.5833 22.8393 91.3185 23.3266C91.0537 23.8139 90.9213 24.4071 90.9213 25.1062C90.9213 25.816 91.0484 26.4145 91.3026 26.9018C91.5674 27.389 91.917 27.7545 92.3513 27.9982C92.7856 28.2312 93.2623 28.3477 93.7814 28.3477ZM101.594 22.1825C101.848 21.6847 102.208 21.298 102.674 21.0226C103.151 20.7472 103.728 20.6095 104.406 20.6095V22.1031H104.025C102.404 22.1031 101.594 22.9823 101.594 24.7408V29.4759H100.148V20.7684H101.594V22.1825ZM109.771 25.0903C109.771 24.2005 109.951 23.4219 110.311 22.7546C110.672 22.0766 111.164 21.5522 111.789 21.1815C112.425 20.8107 113.129 20.6254 113.902 20.6254C114.665 20.6254 115.327 20.7895 115.889 21.1179C116.45 21.4463 116.868 21.8594 117.144 22.3573V20.7684H118.606V29.4759H117.144V27.8551C116.858 28.3636 116.429 28.7873 115.857 29.1263C115.295 29.4547 114.639 29.6189 113.887 29.6189C113.113 29.6189 112.414 29.4282 111.789 29.0469C111.164 28.6655 110.672 28.1306 110.311 27.442C109.951 26.7535 109.771 25.9696 109.771 25.0903ZM117.144 25.1062C117.144 24.4495 117.011 23.8774 116.747 23.3902C116.482 22.9029 116.122 22.5321 115.666 22.2779C115.221 22.013 114.729 21.8806 114.188 21.8806C113.648 21.8806 113.156 22.0078 112.711 22.262C112.266 22.5162 111.911 22.887 111.646 23.3743C111.381 23.8615 111.249 24.4336 111.249 25.0903C111.249 25.7577 111.381 26.3403 111.646 26.8382C111.911 27.3255 112.266 27.7015 112.711 27.9664C113.156 28.2206 113.648 28.3477 114.188 28.3477C114.729 28.3477 115.221 28.2206 115.666 27.9664C116.122 27.7015 116.482 27.3255 116.747 26.8382C117.011 26.3403 117.144 25.763 117.144 25.1062ZM122.495 17.7175V29.4759H121.049V17.7175H122.495ZM126.406 17.7175V29.4759H124.96V17.7175H126.406Z" fill="black"/>
<g clip-path="url(#clip0_7_151)">
<path d="M18.9385 35.643C28.164 35.643 35.6427 28.1643 35.6427 18.9389C35.6427 9.71339 28.164 2.23468 18.9385 2.23468C9.71309 2.23468 2.23438 9.71339 2.23438 18.9389C2.23438 28.1643 9.71309 35.643 18.9385 35.643Z" stroke="#4285F4" stroke-width="4.46935"/>
<path d="M19.9562 10.2894L19.9562 10.2894C18.7094 9.71574 17.2337 10.2614 16.66 11.5081L2.0181 43.3274C1.44441 44.5742 1.99002 46.0499 3.23677 46.6236C4.48351 47.1973 5.95926 46.6517 6.53296 45.405L21.1748 13.5856C21.7485 12.3389 21.2029 10.8631 19.9562 10.2894Z" fill="#FBBC05"/>
<path d="M17.9286 10.2894L17.9286 10.2894C19.1754 9.71574 20.6511 10.2614 21.2248 11.5081L35.8669 43.328C36.4406 44.5748 35.895 46.0505 34.6483 46.6242C33.4015 47.1979 31.9258 46.6523 31.3521 45.4056L16.7099 13.5856C16.1363 12.3389 16.6819 10.8631 17.9286 10.2894Z" fill="#FBBC05"/>
</g>
<defs>
<clipPath id="clip0_7_151">
<rect width="37.9342" height="47.669" fill="white"/>
</clipPath>
</defs>
</svg>
