<svg width="592" height="656" viewBox="0 0 592 656" fill="none" xmlns="http://www.w3.org/2000/svg">
<circle opacity="0.1" cx="332" cy="270" r="260" fill="#4285F4"/>
<rect x="465.791" y="257.736" width="35.2331" height="35.2331" rx="6.5" transform="rotate(-47.4226 465.791 257.736)" stroke="#4285F4" stroke-width="5"/>
<rect x="24.5609" y="277.13" width="18.494" height="18.494" rx="3.62901" transform="rotate(-19.868 24.5609 277.13)" stroke="#EA4335" stroke-width="1.83871"/>
<circle r="27.5" transform="matrix(-1 0 0 1 491.5 70.5)" fill="#4285F4"/>
<circle r="15" transform="matrix(-1 0 0 1 65.5 18)" fill="#FBBC05"/>
<circle r="7.5" transform="matrix(-1 0 0 1 421.5 206.5)" fill="#FBBC05"/>
<g filter="url(#filter0_f_13_235)">
<rect x="116" y="100" width="233" height="456" rx="23" fill="black" fill-opacity="0.1"/>
</g>
<rect x="84" y="43" width="233" height="456" rx="23" fill="#F5F5F5"/>
<rect x="95" y="52" width="212" height="438" rx="15" fill="white"/>
<mask id="mask0_13_235" style="mask-type:alpha" maskUnits="userSpaceOnUse" x="95" y="52" width="212" height="438">
<rect x="95" y="52" width="212" height="438" rx="15" fill="white"/>
</mask>
<g mask="url(#mask0_13_235)">
<path d="M166.245 143.111C165.217 143.111 164.28 142.873 163.432 142.396C162.585 141.909 161.912 141.236 161.414 140.378C160.927 139.51 160.683 138.535 160.683 137.455C160.683 136.374 160.927 135.405 161.414 134.547C161.912 133.678 162.585 133.005 163.432 132.529C164.28 132.041 165.217 131.798 166.245 131.798C167.283 131.798 168.226 132.041 169.073 132.529C169.92 133.005 170.588 133.673 171.075 134.531C171.562 135.389 171.806 136.363 171.806 137.455C171.806 138.546 171.562 139.52 171.075 140.378C170.588 141.236 169.92 141.909 169.073 142.396C168.226 142.873 167.283 143.111 166.245 143.111ZM166.245 141.856C167.018 141.856 167.712 141.676 168.326 141.316C168.951 140.956 169.438 140.442 169.788 139.774C170.148 139.107 170.328 138.334 170.328 137.455C170.328 136.565 170.148 135.791 169.788 135.135C169.438 134.467 168.956 133.953 168.342 133.593C167.728 133.233 167.029 133.053 166.245 133.053C165.461 133.053 164.762 133.233 164.147 133.593C163.533 133.953 163.046 134.467 162.685 135.135C162.336 135.791 162.161 136.565 162.161 137.455C162.161 138.334 162.336 139.107 162.685 139.774C163.046 140.442 163.533 140.956 164.147 141.316C164.772 141.676 165.471 141.856 166.245 141.856ZM177.957 134.134C179.017 134.134 179.875 134.457 180.532 135.103C181.188 135.738 181.517 136.66 181.517 137.868V143H180.087V138.074C180.087 137.206 179.869 136.544 179.435 136.088C179.001 135.622 178.408 135.389 177.656 135.389C176.893 135.389 176.284 135.627 175.828 136.104C175.383 136.581 175.161 137.274 175.161 138.185V143H173.715V134.292H175.161V135.532C175.447 135.087 175.834 134.743 176.321 134.499C176.819 134.255 177.364 134.134 177.957 134.134ZM191.824 138.313C191.824 138.588 191.808 138.879 191.776 139.186H184.816C184.869 140.045 185.16 140.717 185.69 141.204C186.23 141.681 186.882 141.92 187.645 141.92C188.27 141.92 188.789 141.776 189.202 141.49C189.625 141.194 189.922 140.802 190.092 140.315H191.649C191.416 141.152 190.95 141.835 190.25 142.364C189.551 142.883 188.683 143.143 187.645 143.143C186.818 143.143 186.077 142.958 185.42 142.587C184.774 142.216 184.265 141.692 183.895 141.014C183.524 140.325 183.338 139.531 183.338 138.63C183.338 137.73 183.519 136.941 183.879 136.263C184.239 135.585 184.742 135.066 185.388 134.706C186.045 134.335 186.797 134.149 187.645 134.149C188.471 134.149 189.202 134.33 189.837 134.69C190.473 135.05 190.96 135.548 191.299 136.183C191.649 136.808 191.824 137.518 191.824 138.313ZM190.33 138.011C190.33 137.46 190.208 136.988 189.964 136.596C189.721 136.194 189.387 135.892 188.963 135.691C188.55 135.479 188.089 135.373 187.581 135.373C186.85 135.373 186.225 135.606 185.706 136.072C185.198 136.538 184.906 137.184 184.832 138.011H190.33ZM201.512 135.484H199.684V143H198.238V135.484H197.11V134.292H198.238V133.673C198.238 132.698 198.487 131.988 198.985 131.544C199.494 131.088 200.304 130.86 201.416 130.86V132.068C200.781 132.068 200.331 132.195 200.066 132.449C199.812 132.693 199.684 133.101 199.684 133.673V134.292H201.512V135.484ZM206.995 143.143C206.18 143.143 205.438 142.958 204.771 142.587C204.114 142.216 203.595 141.692 203.214 141.014C202.843 140.325 202.657 139.531 202.657 138.63C202.657 137.741 202.848 136.957 203.229 136.279C203.621 135.59 204.151 135.066 204.818 134.706C205.486 134.335 206.233 134.149 207.059 134.149C207.885 134.149 208.632 134.335 209.299 134.706C209.967 135.066 210.491 135.585 210.872 136.263C211.264 136.941 211.46 137.73 211.46 138.63C211.46 139.531 211.259 140.325 210.856 141.014C210.465 141.692 209.93 142.216 209.252 142.587C208.574 142.958 207.822 143.143 206.995 143.143ZM206.995 141.872C207.514 141.872 208.002 141.75 208.457 141.506C208.913 141.263 209.278 140.897 209.554 140.41C209.84 139.923 209.983 139.329 209.983 138.63C209.983 137.931 209.845 137.338 209.569 136.851C209.294 136.363 208.934 136.003 208.489 135.77C208.044 135.527 207.562 135.405 207.043 135.405C206.513 135.405 206.026 135.527 205.581 135.77C205.147 136.003 204.797 136.363 204.532 136.851C204.268 137.338 204.135 137.931 204.135 138.63C204.135 139.34 204.262 139.939 204.516 140.426C204.781 140.913 205.131 141.279 205.565 141.522C206 141.755 206.476 141.872 206.995 141.872ZM214.807 135.707C215.062 135.209 215.422 134.822 215.888 134.547C216.365 134.271 216.942 134.134 217.62 134.134V135.627H217.239C215.618 135.627 214.807 136.506 214.807 138.265V143H213.361V134.292H214.807V135.707ZM222.985 138.614C222.985 137.725 223.165 136.946 223.525 136.279C223.885 135.601 224.378 135.076 225.003 134.706C225.639 134.335 226.343 134.149 227.116 134.149C227.879 134.149 228.541 134.314 229.102 134.642C229.664 134.97 230.082 135.384 230.358 135.881V134.292H231.82V143H230.358V141.379C230.072 141.888 229.643 142.311 229.071 142.65C228.509 142.979 227.853 143.143 227.1 143.143C226.327 143.143 225.628 142.952 225.003 142.571C224.378 142.19 223.885 141.655 223.525 140.966C223.165 140.278 222.985 139.494 222.985 138.614ZM230.358 138.63C230.358 137.974 230.225 137.402 229.961 136.914C229.696 136.427 229.336 136.056 228.88 135.802C228.435 135.537 227.943 135.405 227.402 135.405C226.862 135.405 226.369 135.532 225.925 135.786C225.48 136.04 225.125 136.411 224.86 136.898C224.595 137.386 224.463 137.958 224.463 138.614C224.463 139.282 224.595 139.864 224.86 140.362C225.125 140.85 225.48 141.226 225.925 141.49C226.369 141.745 226.862 141.872 227.402 141.872C227.943 141.872 228.435 141.745 228.88 141.49C229.336 141.226 229.696 140.85 229.961 140.362C230.225 139.864 230.358 139.287 230.358 138.63ZM235.709 131.242V143H234.263V131.242H235.709ZM239.619 131.242V143H238.174V131.242H239.619Z" fill="black"/>
<g clip-path="url(#clip0_13_235)">
<path d="M198.939 109.643C208.164 109.643 215.643 102.164 215.643 92.9389C215.643 83.7134 208.164 76.2347 198.939 76.2347C189.713 76.2347 182.234 83.7134 182.234 92.9389C182.234 102.164 189.713 109.643 198.939 109.643Z" stroke="#4285F4" stroke-width="4.46935"/>
<path d="M199.956 84.2894L199.956 84.2894C198.709 83.7157 197.234 84.2613 196.66 85.5081L182.018 117.327C181.444 118.574 181.99 120.05 183.237 120.624C184.484 121.197 185.959 120.652 186.533 119.405L201.175 87.5856C201.749 86.3389 201.203 84.8631 199.956 84.2894Z" fill="#FBBC05"/>
<path d="M197.929 84.2894L197.929 84.2894C199.175 83.7157 200.651 84.2613 201.225 85.5081L215.867 117.328C216.441 118.575 215.895 120.05 214.648 120.624C213.402 121.198 211.926 120.652 211.352 119.406L196.71 87.5856C196.136 86.3389 196.682 84.8631 197.929 84.2894Z" fill="#FBBC05"/>
</g>
<g filter="url(#filter1_d_13_235)">
<rect x="105" y="434" width="192" height="78" rx="6" fill="white"/>
</g>
<rect x="119" y="446" width="164" height="7" fill="#4285F4" fill-opacity="0.26"/>
<rect x="119" y="458" width="103" height="7" fill="#FBBC05" fill-opacity="0.26"/>
<rect x="119" y="470" width="145" height="7" fill="#4285F4" fill-opacity="0.26"/>
<rect x="119" y="482" width="164" height="7" fill="#E5E5E5"/>
<g filter="url(#filter2_d_13_235)">
<rect x="105" y="351" width="192" height="78" rx="6" fill="white"/>
</g>
<rect x="119" y="363" width="164" height="6" fill="#4285F4" fill-opacity="0.26"/>
<rect x="119" y="375" width="103" height="6" fill="#FBBC05" fill-opacity="0.26"/>
<rect x="119" y="387" width="145" height="6" fill="#4285F4" fill-opacity="0.26"/>
<rect x="119" y="399" width="164" height="6" fill="#E5E5E5"/>
<rect x="119" y="411" width="164" height="7" fill="#E5E5E5"/>
</g>
<g filter="url(#filter3_d_13_235)">
<rect x="71" y="170" width="261" height="69" rx="9" fill="white"/>
</g>
<rect x="273" y="187" width="33" height="34" rx="6" fill="#E3ECFD"/>
<path d="M283 198C283 197.735 283.105 197.48 283.293 197.293C283.48 197.105 283.735 197 284 197H296C296.265 197 296.52 197.105 296.707 197.293C296.895 197.48 297 197.735 297 198V200C297 200.265 296.895 200.52 296.707 200.707C296.52 200.895 296.265 201 296 201H284C283.735 201 283.48 200.895 283.293 200.707C283.105 200.52 283 200.265 283 200V198ZM283 204C283 203.735 283.105 203.48 283.293 203.293C283.48 203.105 283.735 203 284 203H290C290.265 203 290.52 203.105 290.707 203.293C290.895 203.48 291 203.735 291 204V210C291 210.265 290.895 210.52 290.707 210.707C290.52 210.895 290.265 211 290 211H284C283.735 211 283.48 210.895 283.293 210.707C283.105 210.52 283 210.265 283 210V204ZM294 203C293.735 203 293.48 203.105 293.293 203.293C293.105 203.48 293 203.735 293 204V210C293 210.265 293.105 210.52 293.293 210.707C293.48 210.895 293.735 211 294 211H296C296.265 211 296.52 210.895 296.707 210.707C296.895 210.52 297 210.265 297 210V204C297 203.735 296.895 203.48 296.707 203.293C296.52 203.105 296.265 203 296 203H294Z" fill="#4285F4"/>
<path d="M104.055 210L101.417 205.471H99.6695V210H98.2235V198.925H101.799C102.636 198.925 103.34 199.068 103.912 199.354C104.495 199.64 104.929 200.027 105.215 200.514C105.501 201.001 105.644 201.557 105.644 202.182C105.644 202.945 105.422 203.618 104.977 204.2C104.542 204.783 103.886 205.17 103.006 205.36L105.787 210H104.055ZM99.6695 204.312H101.799C102.583 204.312 103.17 204.121 103.562 203.739C103.954 203.348 104.15 202.828 104.15 202.182C104.15 201.526 103.954 201.017 103.562 200.657C103.181 200.297 102.593 200.117 101.799 200.117H99.6695V204.312ZM115.836 205.313C115.836 205.588 115.82 205.879 115.788 206.186H108.828C108.881 207.045 109.173 207.717 109.702 208.204C110.242 208.681 110.894 208.92 111.657 208.92C112.282 208.92 112.801 208.776 113.214 208.49C113.638 208.194 113.934 207.802 114.104 207.315H115.661C115.428 208.152 114.962 208.835 114.262 209.364C113.563 209.883 112.695 210.143 111.657 210.143C110.83 210.143 110.089 209.958 109.432 209.587C108.786 209.216 108.277 208.692 107.907 208.014C107.536 207.325 107.35 206.531 107.35 205.63C107.35 204.73 107.531 203.941 107.891 203.263C108.251 202.585 108.754 202.066 109.4 201.706C110.057 201.335 110.809 201.149 111.657 201.149C112.483 201.149 113.214 201.33 113.849 201.69C114.485 202.05 114.972 202.548 115.311 203.183C115.661 203.808 115.836 204.518 115.836 205.313ZM114.342 205.011C114.342 204.46 114.22 203.988 113.976 203.596C113.733 203.194 113.399 202.892 112.975 202.691C112.562 202.479 112.102 202.373 111.593 202.373C110.862 202.373 110.237 202.606 109.718 203.072C109.21 203.538 108.918 204.184 108.844 205.011H114.342ZM120.827 210.143C120.159 210.143 119.561 210.032 119.031 209.809C118.502 209.576 118.083 209.258 117.776 208.856C117.469 208.443 117.299 207.971 117.268 207.442H118.761C118.804 207.876 119.005 208.231 119.365 208.506C119.736 208.782 120.218 208.92 120.811 208.92C121.362 208.92 121.796 208.798 122.114 208.554C122.432 208.31 122.591 208.003 122.591 207.632C122.591 207.251 122.421 206.97 122.082 206.79C121.743 206.6 121.219 206.414 120.509 206.234C119.863 206.065 119.333 205.895 118.92 205.726C118.517 205.546 118.168 205.286 117.871 204.947C117.585 204.598 117.442 204.142 117.442 203.581C117.442 203.136 117.575 202.728 117.84 202.357C118.104 201.986 118.48 201.695 118.968 201.483C119.455 201.261 120.011 201.149 120.636 201.149C121.6 201.149 122.379 201.393 122.972 201.88C123.565 202.368 123.883 203.035 123.925 203.882H122.479C122.448 203.427 122.262 203.062 121.923 202.786C121.595 202.511 121.15 202.373 120.588 202.373C120.069 202.373 119.656 202.484 119.349 202.707C119.042 202.929 118.888 203.22 118.888 203.581C118.888 203.867 118.978 204.105 119.158 204.296C119.349 204.476 119.582 204.624 119.858 204.741C120.144 204.846 120.535 204.968 121.033 205.106C121.658 205.275 122.167 205.445 122.559 205.614C122.951 205.773 123.284 206.017 123.56 206.345C123.846 206.674 123.994 207.103 124.005 207.632C124.005 208.109 123.872 208.538 123.607 208.92C123.343 209.301 122.967 209.603 122.479 209.825C122.003 210.037 121.452 210.143 120.827 210.143ZM127.492 202.897C127.778 202.399 128.202 201.986 128.763 201.658C129.335 201.319 129.997 201.149 130.749 201.149C131.523 201.149 132.222 201.335 132.847 201.706C133.482 202.076 133.98 202.601 134.34 203.279C134.7 203.946 134.881 204.725 134.881 205.614C134.881 206.494 134.7 207.278 134.34 207.966C133.98 208.655 133.482 209.19 132.847 209.571C132.222 209.952 131.523 210.143 130.749 210.143C130.008 210.143 129.351 209.979 128.779 209.65C128.218 209.311 127.788 208.893 127.492 208.395V214.131H126.046V201.292H127.492V202.897ZM133.403 205.614C133.403 204.958 133.27 204.386 133.006 203.898C132.741 203.411 132.381 203.04 131.925 202.786C131.48 202.532 130.988 202.405 130.447 202.405C129.918 202.405 129.425 202.537 128.97 202.802C128.525 203.056 128.165 203.432 127.889 203.93C127.624 204.417 127.492 204.984 127.492 205.63C127.492 206.287 127.624 206.864 127.889 207.362C128.165 207.85 128.525 208.226 128.97 208.49C129.425 208.745 129.918 208.872 130.447 208.872C130.988 208.872 131.48 208.745 131.925 208.49C132.381 208.226 132.741 207.85 133.006 207.362C133.27 206.864 133.403 206.282 133.403 205.614ZM140.581 210.143C139.766 210.143 139.024 209.958 138.357 209.587C137.7 209.216 137.181 208.692 136.8 208.014C136.429 207.325 136.244 206.531 136.244 205.63C136.244 204.741 136.434 203.957 136.816 203.279C137.208 202.59 137.737 202.066 138.405 201.706C139.072 201.335 139.819 201.149 140.645 201.149C141.471 201.149 142.218 201.335 142.885 201.706C143.553 202.066 144.077 202.585 144.459 203.263C144.85 203.941 145.046 204.73 145.046 205.63C145.046 206.531 144.845 207.325 144.443 208.014C144.051 208.692 143.516 209.216 142.838 209.587C142.16 209.958 141.408 210.143 140.581 210.143ZM140.581 208.872C141.101 208.872 141.588 208.75 142.043 208.506C142.499 208.263 142.864 207.897 143.14 207.41C143.426 206.923 143.569 206.329 143.569 205.63C143.569 204.931 143.431 204.338 143.156 203.851C142.88 203.363 142.52 203.003 142.075 202.77C141.63 202.527 141.148 202.405 140.629 202.405C140.099 202.405 139.612 202.527 139.167 202.77C138.733 203.003 138.383 203.363 138.119 203.851C137.854 204.338 137.721 204.931 137.721 205.63C137.721 206.34 137.848 206.939 138.103 207.426C138.368 207.913 138.717 208.279 139.151 208.522C139.586 208.755 140.062 208.872 140.581 208.872ZM151.19 201.134C152.249 201.134 153.108 201.457 153.764 202.103C154.421 202.738 154.749 203.66 154.749 204.868V210H153.319V205.074C153.319 204.206 153.102 203.544 152.668 203.088C152.234 202.622 151.64 202.389 150.888 202.389C150.126 202.389 149.516 202.627 149.061 203.104C148.616 203.581 148.394 204.274 148.394 205.185V210H146.948V201.292H148.394V202.532C148.68 202.087 149.066 201.743 149.554 201.499C150.051 201.255 150.597 201.134 151.19 201.134ZM160.194 210.143C159.527 210.143 158.928 210.032 158.398 209.809C157.869 209.576 157.45 209.258 157.143 208.856C156.836 208.443 156.667 207.971 156.635 207.442H158.128C158.171 207.876 158.372 208.231 158.732 208.506C159.103 208.782 159.585 208.92 160.178 208.92C160.729 208.92 161.163 208.798 161.481 208.554C161.799 208.31 161.958 208.003 161.958 207.632C161.958 207.251 161.788 206.97 161.449 206.79C161.11 206.6 160.586 206.414 159.876 206.234C159.23 206.065 158.7 205.895 158.287 205.726C157.885 205.546 157.535 205.286 157.239 204.947C156.953 204.598 156.81 204.142 156.81 203.581C156.81 203.136 156.942 202.728 157.207 202.357C157.472 201.986 157.848 201.695 158.335 201.483C158.822 201.261 159.378 201.149 160.003 201.149C160.967 201.149 161.746 201.393 162.339 201.88C162.932 202.368 163.25 203.035 163.293 203.882H161.847C161.815 203.427 161.629 203.062 161.29 202.786C160.962 202.511 160.517 202.373 159.956 202.373C159.437 202.373 159.023 202.484 158.716 202.707C158.409 202.929 158.255 203.22 158.255 203.581C158.255 203.867 158.346 204.105 158.526 204.296C158.716 204.476 158.949 204.624 159.225 204.741C159.511 204.846 159.903 204.968 160.401 205.106C161.026 205.275 161.534 205.445 161.926 205.614C162.318 205.773 162.652 206.017 162.927 206.345C163.213 206.674 163.361 207.103 163.372 207.632C163.372 208.109 163.24 208.538 162.975 208.92C162.71 209.301 162.334 209.603 161.847 209.825C161.37 210.037 160.819 210.143 160.194 210.143ZM166.16 199.878C165.885 199.878 165.651 199.783 165.461 199.592C165.27 199.402 165.175 199.169 165.175 198.893C165.175 198.618 165.27 198.385 165.461 198.194C165.651 198.003 165.885 197.908 166.16 197.908C166.425 197.908 166.647 198.003 166.827 198.194C167.018 198.385 167.113 198.618 167.113 198.893C167.113 199.169 167.018 199.402 166.827 199.592C166.647 199.783 166.425 199.878 166.16 199.878ZM166.859 201.292V210H165.413V201.292H166.859ZM172.565 208.665L175.266 201.292H176.808L173.391 210H171.707L168.291 201.292H169.848L172.565 208.665ZM186.175 205.313C186.175 205.588 186.159 205.879 186.128 206.186H179.168C179.221 207.045 179.512 207.717 180.042 208.204C180.582 208.681 181.234 208.92 181.996 208.92C182.621 208.92 183.14 208.776 183.553 208.49C183.977 208.194 184.274 207.802 184.443 207.315H186C185.767 208.152 185.301 208.835 184.602 209.364C183.903 209.883 183.034 210.143 181.996 210.143C181.17 210.143 180.428 209.958 179.772 209.587C179.126 209.216 178.617 208.692 178.246 208.014C177.876 207.325 177.69 206.531 177.69 205.63C177.69 204.73 177.87 203.941 178.23 203.263C178.591 202.585 179.094 202.066 179.74 201.706C180.397 201.335 181.149 201.149 181.996 201.149C182.823 201.149 183.553 201.33 184.189 201.69C184.825 202.05 185.312 202.548 185.651 203.183C186 203.808 186.175 204.518 186.175 205.313ZM184.682 205.011C184.682 204.46 184.56 203.988 184.316 203.596C184.072 203.194 183.739 202.892 183.315 202.691C182.902 202.479 182.441 202.373 181.933 202.373C181.202 202.373 180.577 202.606 180.058 203.072C179.549 203.538 179.258 204.184 179.184 205.011H184.682ZM191.78 205.614C191.78 204.725 191.96 203.946 192.32 203.279C192.68 202.601 193.173 202.076 193.798 201.706C194.433 201.335 195.143 201.149 195.927 201.149C196.605 201.149 197.235 201.308 197.818 201.626C198.4 201.933 198.845 202.341 199.153 202.85V198.242H200.614V210H199.153V208.363C198.867 208.882 198.443 209.311 197.881 209.65C197.32 209.979 196.663 210.143 195.911 210.143C195.138 210.143 194.433 209.952 193.798 209.571C193.173 209.19 192.68 208.655 192.32 207.966C191.96 207.278 191.78 206.494 191.78 205.614ZM199.153 205.63C199.153 204.974 199.02 204.402 198.755 203.914C198.491 203.427 198.13 203.056 197.675 202.802C197.23 202.537 196.737 202.405 196.197 202.405C195.657 202.405 195.164 202.532 194.719 202.786C194.274 203.04 193.92 203.411 193.655 203.898C193.39 204.386 193.258 204.958 193.258 205.614C193.258 206.282 193.39 206.864 193.655 207.362C193.92 207.85 194.274 208.226 194.719 208.49C195.164 208.745 195.657 208.872 196.197 208.872C196.737 208.872 197.23 208.745 197.675 208.49C198.13 208.226 198.491 207.85 198.755 207.362C199.02 206.864 199.153 206.287 199.153 205.63ZM211.003 205.313C211.003 205.588 210.987 205.879 210.955 206.186H203.995C204.048 207.045 204.34 207.717 204.869 208.204C205.41 208.681 206.061 208.92 206.824 208.92C207.449 208.92 207.968 208.776 208.381 208.49C208.805 208.194 209.101 207.802 209.271 207.315H210.828C210.595 208.152 210.129 208.835 209.43 209.364C208.731 209.883 207.862 210.143 206.824 210.143C205.998 210.143 205.256 209.958 204.599 209.587C203.953 209.216 203.445 208.692 203.074 208.014C202.703 207.325 202.518 206.531 202.518 205.63C202.518 204.73 202.698 203.941 203.058 203.263C203.418 202.585 203.921 202.066 204.568 201.706C205.224 201.335 205.976 201.149 206.824 201.149C207.65 201.149 208.381 201.33 209.017 201.69C209.652 202.05 210.139 202.548 210.478 203.183C210.828 203.808 211.003 204.518 211.003 205.313ZM209.509 205.011C209.509 204.46 209.387 203.988 209.144 203.596C208.9 203.194 208.566 202.892 208.143 202.691C207.73 202.479 207.269 202.373 206.76 202.373C206.029 202.373 205.404 202.606 204.885 203.072C204.377 203.538 204.086 204.184 204.011 205.011H209.509ZM215.994 210.143C215.327 210.143 214.728 210.032 214.198 209.809C213.669 209.576 213.25 209.258 212.943 208.856C212.636 208.443 212.467 207.971 212.435 207.442H213.928C213.971 207.876 214.172 208.231 214.532 208.506C214.903 208.782 215.385 208.92 215.978 208.92C216.529 208.92 216.963 208.798 217.281 208.554C217.599 208.31 217.758 208.003 217.758 207.632C217.758 207.251 217.588 206.97 217.249 206.79C216.91 206.6 216.386 206.414 215.676 206.234C215.03 206.065 214.5 205.895 214.087 205.726C213.685 205.546 213.335 205.286 213.039 204.947C212.753 204.598 212.61 204.142 212.61 203.581C212.61 203.136 212.742 202.728 213.007 202.357C213.272 201.986 213.648 201.695 214.135 201.483C214.622 201.261 215.178 201.149 215.803 201.149C216.767 201.149 217.546 201.393 218.139 201.88C218.732 202.368 219.05 203.035 219.093 203.882H217.647C217.615 203.427 217.429 203.062 217.09 202.786C216.762 202.511 216.317 202.373 215.756 202.373C215.237 202.373 214.823 202.484 214.516 202.707C214.209 202.929 214.055 203.22 214.055 203.581C214.055 203.867 214.146 204.105 214.326 204.296C214.516 204.476 214.749 204.624 215.025 204.741C215.311 204.846 215.703 204.968 216.201 205.106C216.826 205.275 217.334 205.445 217.726 205.614C218.118 205.773 218.452 206.017 218.727 206.345C219.013 206.674 219.161 207.103 219.172 207.632C219.172 208.109 219.04 208.538 218.775 208.92C218.51 209.301 218.134 209.603 217.647 209.825C217.17 210.037 216.619 210.143 215.994 210.143ZM221.96 199.878C221.685 199.878 221.452 199.783 221.261 199.592C221.07 199.402 220.975 199.169 220.975 198.893C220.975 198.618 221.07 198.385 221.261 198.194C221.452 198.003 221.685 197.908 221.96 197.908C222.225 197.908 222.447 198.003 222.627 198.194C222.818 198.385 222.913 198.618 222.913 198.893C222.913 199.169 222.818 199.402 222.627 199.592C222.447 199.783 222.225 199.878 221.96 199.878ZM222.659 201.292V210H221.213V201.292H222.659ZM228.715 201.149C229.467 201.149 230.123 201.314 230.685 201.642C231.257 201.97 231.681 202.384 231.956 202.881V201.292H233.418V210.191C233.418 210.985 233.248 211.69 232.909 212.304C232.57 212.929 232.083 213.416 231.448 213.766C230.823 214.115 230.092 214.29 229.255 214.29C228.111 214.29 227.157 214.02 226.395 213.48C225.632 212.94 225.182 212.203 225.044 211.271H226.474C226.633 211.801 226.961 212.225 227.459 212.542C227.957 212.871 228.556 213.035 229.255 213.035C230.049 213.035 230.695 212.786 231.193 212.288C231.702 211.79 231.956 211.091 231.956 210.191V208.363C231.67 208.872 231.246 209.296 230.685 209.635C230.123 209.974 229.467 210.143 228.715 210.143C227.941 210.143 227.237 209.952 226.601 209.571C225.976 209.19 225.484 208.655 225.124 207.966C224.763 207.278 224.583 206.494 224.583 205.614C224.583 204.725 224.763 203.946 225.124 203.279C225.484 202.601 225.976 202.076 226.601 201.706C227.237 201.335 227.941 201.149 228.715 201.149ZM231.956 205.63C231.956 204.974 231.824 204.402 231.559 203.914C231.294 203.427 230.934 203.056 230.478 202.802C230.033 202.537 229.541 202.405 229.001 202.405C228.46 202.405 227.968 202.532 227.523 202.786C227.078 203.04 226.723 203.411 226.458 203.898C226.193 204.386 226.061 204.958 226.061 205.614C226.061 206.282 226.193 206.864 226.458 207.362C226.723 207.85 227.078 208.226 227.523 208.49C227.968 208.745 228.46 208.872 229.001 208.872C229.541 208.872 230.033 208.745 230.478 208.49C230.934 208.226 231.294 207.85 231.559 207.362C231.824 206.864 231.956 206.287 231.956 205.63ZM240.104 201.134C241.163 201.134 242.021 201.457 242.678 202.103C243.335 202.738 243.663 203.66 243.663 204.868V210H242.233V205.074C242.233 204.206 242.016 203.544 241.582 203.088C241.147 202.622 240.554 202.389 239.802 202.389C239.039 202.389 238.43 202.627 237.975 203.104C237.53 203.581 237.307 204.274 237.307 205.185V210H235.861V201.292H237.307V202.532C237.593 202.087 237.98 201.743 238.467 201.499C238.965 201.255 239.511 201.134 240.104 201.134Z" fill="#181818"/>
<g filter="url(#filter4_d_13_235)">
<rect x="71" y="252" width="261" height="125" rx="9" fill="white"/>
</g>
<path d="M96.8778 283.148C98.7983 283.148 100.091 281.689 100.091 279.491C100.091 277.276 98.7983 275.817 96.8778 275.817C94.9574 275.817 93.6648 277.276 93.6648 279.491C93.6648 281.689 94.9574 283.148 96.8778 283.148ZM96.8778 282.169C95.419 282.169 94.7543 280.913 94.7543 279.491C94.7543 278.07 95.419 276.795 96.8778 276.795C98.3366 276.795 99.0014 278.07 99.0014 279.491C99.0014 280.913 98.3366 282.169 96.8778 282.169ZM102.843 278.734C102.843 277.497 103.61 276.795 104.653 276.795C105.664 276.795 106.278 277.456 106.278 278.568V283H107.368V278.494C107.368 276.685 106.403 275.817 104.967 275.817C103.896 275.817 103.231 276.297 102.899 277.017H102.807V275.909H101.754V283H102.843V278.734ZM112.331 283.148C113.772 283.148 114.824 282.428 115.157 281.357L114.104 281.061C113.827 281.8 113.186 282.169 112.331 282.169C111.053 282.169 110.171 281.343 110.12 279.824H115.268V279.362C115.268 276.722 113.698 275.817 112.221 275.817C110.3 275.817 109.026 277.331 109.026 279.51C109.026 281.689 110.282 283.148 112.331 283.148ZM110.12 278.882C110.194 277.779 110.974 276.795 112.221 276.795C113.403 276.795 114.16 277.682 114.16 278.882H110.12ZM120.083 275.909H118.494V275.189C118.494 274.487 118.79 274.118 119.51 274.118C119.824 274.118 120.009 274.192 120.119 274.229L120.433 273.287C120.267 273.213 119.935 273.102 119.399 273.102C118.384 273.102 117.405 273.712 117.405 274.93V275.909H116.26V276.832H117.405V283H118.494V276.832H120.083V275.909ZM124.198 283.148C126.119 283.148 127.411 281.689 127.411 279.491C127.411 277.276 126.119 275.817 124.198 275.817C122.278 275.817 120.985 277.276 120.985 279.491C120.985 281.689 122.278 283.148 124.198 283.148ZM124.198 282.169C122.739 282.169 122.075 280.913 122.075 279.491C122.075 278.07 122.739 276.795 124.198 276.795C125.657 276.795 126.322 278.07 126.322 279.491C126.322 280.913 125.657 282.169 124.198 282.169ZM129.074 283H130.164V278.513C130.164 277.553 130.921 276.851 131.955 276.851C132.246 276.851 132.546 276.906 132.62 276.925V275.817C132.495 275.808 132.209 275.798 132.047 275.798C131.198 275.798 130.459 276.278 130.201 276.98H130.127V275.909H129.074V283ZM135.998 283.166C137.235 283.166 137.881 282.501 138.103 282.04H138.158V283H139.248V278.328C139.248 276.075 137.531 275.817 136.626 275.817C135.555 275.817 134.336 276.186 133.782 277.479L134.816 277.848C135.056 277.331 135.624 276.777 136.663 276.777C137.664 276.777 138.158 277.308 138.158 278.217V278.254C138.158 278.781 137.623 278.734 136.33 278.901C135.015 279.071 133.579 279.362 133.579 280.987C133.579 282.372 134.65 283.166 135.998 283.166ZM136.164 282.188C135.296 282.188 134.668 281.8 134.668 281.043C134.668 280.212 135.425 279.953 136.275 279.842C136.737 279.787 137.974 279.658 138.158 279.436V280.433C138.158 281.32 137.457 282.188 136.164 282.188ZM142.326 273.545H141.236V283H142.326V273.545ZM145.411 273.545H144.321V283H145.411V273.545ZM148.2 283.074C148.657 283.074 149.031 282.7 149.031 282.243C149.031 281.786 148.657 281.412 148.2 281.412C147.743 281.412 147.369 281.786 147.369 282.243C147.369 282.7 147.743 283.074 148.2 283.074ZM152.076 278.734C152.076 277.497 152.842 276.795 153.886 276.795C154.897 276.795 155.511 277.456 155.511 278.568V283H156.6V278.494C156.6 276.685 155.635 275.817 154.199 275.817C153.128 275.817 152.464 276.297 152.131 277.017H152.039V275.909H150.986V283H152.076V278.734ZM161.564 283.148C163.004 283.148 164.057 282.428 164.389 281.357L163.337 281.061C163.06 281.8 162.418 282.169 161.564 282.169C160.285 282.169 159.403 281.343 159.353 279.824H164.5V279.362C164.5 276.722 162.93 275.817 161.453 275.817C159.533 275.817 158.259 277.331 158.259 279.51C158.259 281.689 159.514 283.148 161.564 283.148ZM159.353 278.882C159.426 277.779 160.207 276.795 161.453 276.795C162.635 276.795 163.392 277.682 163.392 278.882H159.353ZM169.241 275.909H167.727V274.21H166.637V275.909H165.566V276.832H166.637V281.264C166.637 282.501 167.635 283.092 168.558 283.092C168.964 283.092 169.223 283.018 169.37 282.963L169.149 281.984C169.056 282.003 168.909 282.04 168.669 282.04C168.189 282.04 167.727 281.892 167.727 280.969V276.832H169.241V275.909ZM172.122 273.545H171.032V283H172.122V273.545ZM174.117 283H175.207V275.909H174.117V283ZM174.671 274.727C175.096 274.727 175.447 274.395 175.447 273.989C175.447 273.582 175.096 273.25 174.671 273.25C174.247 273.25 173.896 273.582 173.896 273.989C173.896 274.395 174.247 274.727 174.671 274.727ZM180.36 275.909H178.772V275.189C178.772 274.487 179.067 274.118 179.787 274.118C180.101 274.118 180.286 274.192 180.397 274.229L180.711 273.287C180.545 273.213 180.212 273.102 179.677 273.102C178.661 273.102 177.682 273.712 177.682 274.93V275.909H176.537V276.832H177.682V283H178.772V276.832H180.36V275.909ZM182.589 285.659C183.572 285.659 184.264 285.137 184.675 284.034L187.694 275.928L186.503 275.909L184.546 281.56H184.472L182.515 275.909H181.333L183.955 283.037L183.752 283.591C183.355 284.671 182.866 284.773 182.071 284.57L181.794 285.53C181.905 285.585 182.219 285.659 182.589 285.659ZM189.486 283.074C189.943 283.074 190.316 282.7 190.316 282.243C190.316 281.786 189.943 281.412 189.486 281.412C189.028 281.412 188.655 281.786 188.655 282.243C188.655 282.7 189.028 283.074 189.486 283.074ZM194.358 283.166C195.595 283.166 196.242 282.501 196.463 282.04H196.519V283H197.608V278.328C197.608 276.075 195.891 275.817 194.986 275.817C193.915 275.817 192.696 276.186 192.142 277.479L193.176 277.848C193.416 277.331 193.984 276.777 195.023 276.777C196.025 276.777 196.519 277.308 196.519 278.217V278.254C196.519 278.781 195.983 278.734 194.691 278.901C193.375 279.071 191.939 279.362 191.939 280.987C191.939 282.372 193.01 283.166 194.358 283.166ZM194.524 282.188C193.657 282.188 193.029 281.8 193.029 281.043C193.029 280.212 193.786 279.953 194.635 279.842C195.097 279.787 196.334 279.658 196.519 279.436V280.433C196.519 281.32 195.817 282.188 194.524 282.188ZM199.597 285.659H200.686V281.911H200.779C201.019 282.298 201.48 283.148 202.847 283.148C204.619 283.148 205.857 281.726 205.857 279.473C205.857 277.239 204.619 275.817 202.828 275.817C201.443 275.817 201.019 276.666 200.779 277.036H200.649V275.909H199.597V285.659ZM200.668 279.455C200.668 277.866 201.369 276.795 202.699 276.795C204.084 276.795 204.767 277.959 204.767 279.455C204.767 280.969 204.066 282.169 202.699 282.169C201.388 282.169 200.668 281.061 200.668 279.455ZM207.519 285.659H208.608V281.911H208.7C208.941 282.298 209.402 283.148 210.769 283.148C212.541 283.148 213.779 281.726 213.779 279.473C213.779 277.239 212.541 275.817 210.75 275.817C209.365 275.817 208.941 276.666 208.7 277.036H208.571V275.909H207.519V285.659ZM208.59 279.455C208.59 277.866 209.291 276.795 210.621 276.795C212.006 276.795 212.689 277.959 212.689 279.455C212.689 280.969 211.987 282.169 210.621 282.169C209.31 282.169 208.59 281.061 208.59 279.455Z" fill="black"/>
<path d="M95.1222 298.909H93.4602L98.267 312H99.9034L104.71 298.909H103.048L99.1619 309.929H99.0085L95.1222 298.909ZM106.545 312H108.053V302.182H106.545V312ZM107.312 300.545C107.9 300.545 108.386 300.085 108.386 299.523C108.386 298.96 107.9 298.5 107.312 298.5C106.724 298.5 106.238 298.96 106.238 299.523C106.238 300.085 106.724 300.545 107.312 300.545ZM117.771 304.381C117.298 302.987 116.237 302.054 114.294 302.054C112.222 302.054 110.688 303.23 110.688 304.892C110.688 306.247 111.494 307.155 113.296 307.577L114.933 307.96C115.923 308.19 116.39 308.663 116.39 309.341C116.39 310.185 115.495 310.875 114.089 310.875C112.855 310.875 112.082 310.344 111.813 309.29L110.382 309.648C110.733 311.316 112.107 312.205 114.115 312.205C116.396 312.205 117.95 310.958 117.95 309.264C117.95 307.896 117.093 307.033 115.342 306.605L113.884 306.247C112.721 305.96 112.197 305.57 112.197 304.815C112.197 303.972 113.092 303.358 114.294 303.358C115.61 303.358 116.154 304.087 116.416 304.764L117.771 304.381ZM120.221 312H121.729V302.182H120.221V312ZM120.988 300.545C121.576 300.545 122.061 300.085 122.061 299.523C122.061 298.96 121.576 298.5 120.988 298.5C120.4 298.5 119.914 298.96 119.914 299.523C119.914 300.085 120.4 300.545 120.988 300.545ZM128.762 302.182H126.665V299.83H125.157V302.182H123.674V303.46H125.157V309.597C125.157 311.31 126.537 312.128 127.816 312.128C128.378 312.128 128.736 312.026 128.941 311.949L128.634 310.594C128.506 310.619 128.302 310.67 127.969 310.67C127.305 310.67 126.665 310.466 126.665 309.188V303.46H128.762V302.182ZM135.042 312.205C137.036 312.205 138.494 311.207 138.954 309.724L137.497 309.315C137.113 310.338 136.225 310.849 135.042 310.849C133.271 310.849 132.051 309.705 131.98 307.602H139.107V306.963C139.107 303.307 136.934 302.054 134.889 302.054C132.23 302.054 130.465 304.151 130.465 307.168C130.465 310.185 132.204 312.205 135.042 312.205ZM131.98 306.298C132.083 304.771 133.163 303.409 134.889 303.409C136.525 303.409 137.573 304.636 137.573 306.298H131.98ZM145.11 312.205C147.002 312.205 147.641 311.028 147.973 310.491H148.152V312H149.61V298.909H148.101V303.741H147.973C147.641 303.23 147.053 302.054 145.135 302.054C142.655 302.054 140.942 304.023 140.942 307.116C140.942 310.236 142.655 312.205 145.11 312.205ZM145.314 310.849C143.422 310.849 142.45 309.188 142.45 307.091C142.45 305.02 143.396 303.409 145.314 303.409C147.155 303.409 148.127 304.892 148.127 307.091C148.127 309.315 147.129 310.849 145.314 310.849ZM161.914 302.182H159.818V299.83H158.309V302.182H156.826V303.46H158.309V309.597C158.309 311.31 159.69 312.128 160.968 312.128C161.531 312.128 161.889 312.026 162.093 311.949L161.786 310.594C161.659 310.619 161.454 310.67 161.122 310.67C160.457 310.67 159.818 310.466 159.818 309.188V303.46H161.914V302.182ZM164.183 312H165.692V305.787C165.692 304.457 166.74 303.486 168.172 303.486C168.575 303.486 168.99 303.562 169.093 303.588V302.054C168.92 302.041 168.524 302.028 168.3 302.028C167.124 302.028 166.101 302.693 165.743 303.665H165.641V302.182H164.183V312ZM174.698 312.205C176.693 312.205 178.15 311.207 178.61 309.724L177.153 309.315C176.769 310.338 175.881 310.849 174.698 310.849C172.928 310.849 171.707 309.705 171.637 307.602H178.764V306.963C178.764 303.307 176.59 302.054 174.545 302.054C171.886 302.054 170.122 304.151 170.122 307.168C170.122 310.185 171.86 312.205 174.698 312.205ZM171.637 306.298C171.739 304.771 172.819 303.409 174.545 303.409C176.181 303.409 177.23 304.636 177.23 306.298H171.637ZM182.567 306.094C182.567 304.381 183.628 303.409 185.073 303.409C186.472 303.409 187.323 304.323 187.323 305.864V312H188.831V305.761C188.831 303.256 187.495 302.054 185.507 302.054C184.024 302.054 183.104 302.719 182.644 303.716H182.516V302.182H181.058V312H182.567V306.094ZM195.295 312.205C197.187 312.205 197.826 311.028 198.159 310.491H198.338V312H199.795V298.909H198.287V303.741H198.159C197.826 303.23 197.238 302.054 195.321 302.054C192.841 302.054 191.127 304.023 191.127 307.116C191.127 310.236 192.841 312.205 195.295 312.205ZM195.5 310.849C193.608 310.849 192.636 309.188 192.636 307.091C192.636 305.02 193.582 303.409 195.5 303.409C197.341 303.409 198.312 304.892 198.312 307.091C198.312 309.315 197.315 310.849 195.5 310.849ZM211.537 312.205C213.429 312.205 214.069 311.028 214.401 310.491H214.58V312H216.037V298.909H214.529V303.741H214.401C214.069 303.23 213.48 302.054 211.563 302.054C209.083 302.054 207.37 304.023 207.37 307.116C207.37 310.236 209.083 312.205 211.537 312.205ZM211.742 310.849C209.85 310.849 208.878 309.188 208.878 307.091C208.878 305.02 209.824 303.409 211.742 303.409C213.583 303.409 214.554 304.892 214.554 307.091C214.554 309.315 213.557 310.849 211.742 310.849ZM223.126 312.205C225.12 312.205 226.578 311.207 227.038 309.724L225.581 309.315C225.197 310.338 224.309 310.849 223.126 310.849C221.355 310.849 220.135 309.705 220.064 307.602H227.191V306.963C227.191 303.307 225.018 302.054 222.973 302.054C220.314 302.054 218.549 304.151 218.549 307.168C218.549 310.185 220.288 312.205 223.126 312.205ZM220.064 306.298C220.167 304.771 221.247 303.409 222.973 303.409C224.609 303.409 225.657 304.636 225.657 306.298H220.064ZM236.441 304.381C235.968 302.987 234.907 302.054 232.963 302.054C230.892 302.054 229.358 303.23 229.358 304.892C229.358 306.247 230.164 307.155 231.966 307.577L233.603 307.96C234.593 308.19 235.06 308.663 235.06 309.341C235.06 310.185 234.165 310.875 232.759 310.875C231.525 310.875 230.752 310.344 230.483 309.29L229.051 309.648C229.403 311.316 230.777 312.205 232.784 312.205C235.066 312.205 236.62 310.958 236.62 309.264C236.62 307.896 235.763 307.033 234.012 306.605L232.554 306.247C231.391 305.96 230.867 305.57 230.867 304.815C230.867 303.972 231.762 303.358 232.963 303.358C234.28 303.358 234.824 304.087 235.086 304.764L236.441 304.381ZM238.89 312H240.399V302.182H238.89V312ZM239.657 300.545C240.246 300.545 240.731 300.085 240.731 299.523C240.731 298.96 240.246 298.5 239.657 298.5C239.069 298.5 238.584 298.96 238.584 299.523C238.584 300.085 239.069 300.545 239.657 300.545ZM247.125 315.886C249.477 315.886 251.369 314.812 251.369 312.281V302.182H249.912V303.741H249.759C249.426 303.23 248.812 302.054 246.895 302.054C244.415 302.054 242.702 304.023 242.702 307.04C242.702 310.108 244.491 311.847 246.869 311.847C248.787 311.847 249.401 310.722 249.733 310.185H249.861V312.179C249.861 313.815 248.71 314.557 247.125 314.557C245.342 314.557 244.715 313.617 244.312 313.074L243.111 313.918C243.724 314.947 244.933 315.886 247.125 315.886ZM247.074 310.491C245.182 310.491 244.21 309.06 244.21 307.014C244.21 305.02 245.156 303.409 247.074 303.409C248.915 303.409 249.886 304.892 249.886 307.014C249.886 309.188 248.889 310.491 247.074 310.491ZM255.639 306.094C255.639 304.381 256.7 303.409 258.145 303.409C259.545 303.409 260.395 304.323 260.395 305.864V312H261.903V305.761C261.903 303.256 260.567 302.054 258.58 302.054C257.097 302.054 256.176 302.719 255.716 303.716H255.588V302.182H254.131V312H255.639V306.094ZM278.518 298.909V307.449C278.518 309.366 277.201 310.747 275.015 310.747C272.829 310.747 271.512 309.366 271.512 307.449V298.909H269.927V307.577C269.927 310.261 271.934 312.23 275.015 312.23C278.096 312.23 280.103 310.261 280.103 307.577V298.909H278.518ZM284.854 298.909H283.269V312H284.854V298.909Z" fill="#4285F4"/>
<path d="M95.8622 339H97.044L99.1307 331.466H99.2045L101.291 339H102.473L105.058 329.545H103.895L101.919 337.246H101.827L99.8139 329.545H98.5213L96.5085 337.246H96.4162L94.4403 329.545H93.277L95.8622 339ZM106.337 339H107.426V331.909H106.337V339ZM106.891 330.727C107.316 330.727 107.667 330.395 107.667 329.989C107.667 329.582 107.316 329.25 106.891 329.25C106.466 329.25 106.115 329.582 106.115 329.989C106.115 330.395 106.466 330.727 106.891 330.727ZM112.506 331.909H110.992V330.21H109.902V331.909H108.831V332.832H109.902V337.264C109.902 338.501 110.899 339.092 111.823 339.092C112.229 339.092 112.487 339.018 112.635 338.963L112.413 337.984C112.321 338.003 112.173 338.04 111.933 338.04C111.453 338.04 110.992 337.892 110.992 336.969V332.832H112.506V331.909ZM115.386 334.734C115.386 333.497 116.176 332.795 117.252 332.795C118.276 332.795 118.895 333.442 118.895 334.568V339H119.984V334.494C119.984 332.671 119.015 331.817 117.565 331.817C116.448 331.817 115.811 332.283 115.479 333.017H115.386V329.545H114.297V339H115.386V334.734ZM126.723 329.545H125.634V339H126.723V329.545ZM131.6 339.148C133.52 339.148 134.813 337.689 134.813 335.491C134.813 333.276 133.52 331.817 131.6 331.817C129.679 331.817 128.386 333.276 128.386 335.491C128.386 337.689 129.679 339.148 131.6 339.148ZM131.6 338.169C130.141 338.169 129.476 336.913 129.476 335.491C129.476 334.07 130.141 332.795 131.6 332.795C133.058 332.795 133.723 334.07 133.723 335.491C133.723 336.913 133.058 338.169 131.6 338.169ZM137.841 339H138.912L140.463 333.553H140.574L142.125 339H143.196L145.357 331.909H144.212L142.679 337.32H142.605L141.109 331.909H139.946L138.432 337.338H138.358L136.825 331.909H135.68L137.841 339ZM150.601 339H151.653V337.911H151.783C152.023 338.298 152.484 339.148 153.851 339.148C155.624 339.148 156.861 337.726 156.861 335.473C156.861 333.239 155.624 331.817 153.832 331.817C152.448 331.817 152.023 332.666 151.783 333.036H151.69V329.545H150.601V339ZM151.672 335.455C151.672 333.866 152.374 332.795 153.703 332.795C155.088 332.795 155.771 333.959 155.771 335.455C155.771 336.969 155.07 338.169 153.703 338.169C152.392 338.169 151.672 337.061 151.672 335.455ZM162.996 336.101C162.996 337.43 161.981 338.04 161.168 338.04C160.263 338.04 159.617 337.375 159.617 336.341V331.909H158.527V336.415C158.527 338.224 159.488 339.092 160.817 339.092C161.888 339.092 162.59 338.52 162.922 337.8H162.996V339H164.086V331.909H162.996V336.101ZM168.759 339.148C170.125 339.148 170.587 338.298 170.827 337.911H170.956V339H172.009V329.545H170.919V333.036H170.827C170.587 332.666 170.162 331.817 168.777 331.817C166.986 331.817 165.749 333.239 165.749 335.473C165.749 337.726 166.986 339.148 168.759 339.148ZM168.906 338.169C167.54 338.169 166.838 336.969 166.838 335.455C166.838 333.959 167.521 332.795 168.906 332.795C170.236 332.795 170.938 333.866 170.938 335.455C170.938 337.061 170.218 338.169 168.906 338.169ZM177.018 341.807C178.716 341.807 180.083 341.031 180.083 339.203V331.909H179.03V333.036H178.92C178.68 332.666 178.236 331.817 176.851 331.817C175.06 331.817 173.823 333.239 173.823 335.418C173.823 337.634 175.116 338.889 176.833 338.889C178.218 338.889 178.661 338.077 178.901 337.689H178.993V339.129C178.993 340.311 178.162 340.847 177.018 340.847C175.73 340.847 175.277 340.168 174.986 339.776L174.118 340.385C174.562 341.128 175.434 341.807 177.018 341.807ZM176.981 337.911C175.614 337.911 174.912 336.876 174.912 335.399C174.912 333.959 175.596 332.795 176.981 332.795C178.31 332.795 179.012 333.866 179.012 335.399C179.012 336.969 178.292 337.911 176.981 337.911ZM185.05 339.148C186.491 339.148 187.543 338.428 187.876 337.357L186.823 337.061C186.546 337.8 185.904 338.169 185.05 338.169C183.771 338.169 182.89 337.343 182.839 335.824H187.986V335.362C187.986 332.722 186.417 331.817 184.939 331.817C183.019 331.817 181.745 333.331 181.745 335.51C181.745 337.689 183.001 339.148 185.05 339.148ZM182.839 334.882C182.913 333.779 183.693 332.795 184.939 332.795C186.121 332.795 186.878 333.682 186.878 334.882H182.839ZM192.727 331.909H191.213V330.21H190.124V331.909H189.053V332.832H190.124V337.264C190.124 338.501 191.121 339.092 192.044 339.092C192.45 339.092 192.709 339.018 192.857 338.963L192.635 337.984C192.543 338.003 192.395 338.04 192.155 338.04C191.675 338.04 191.213 337.892 191.213 336.969V332.832H192.727V331.909ZM198.724 341.659C199.708 341.659 200.4 341.137 200.811 340.034L203.83 331.928L202.639 331.909L200.682 337.56H200.608L198.65 331.909H197.469L200.091 339.037L199.888 339.591C199.491 340.671 199.001 340.773 198.207 340.57L197.93 341.53C198.041 341.585 198.355 341.659 198.724 341.659ZM207.898 339.148C209.819 339.148 211.111 337.689 211.111 335.491C211.111 333.276 209.819 331.817 207.898 331.817C205.978 331.817 204.685 333.276 204.685 335.491C204.685 337.689 205.978 339.148 207.898 339.148ZM207.898 338.169C206.44 338.169 205.775 336.913 205.775 335.491C205.775 334.07 206.44 332.795 207.898 332.795C209.357 332.795 210.022 334.07 210.022 335.491C210.022 336.913 209.357 338.169 207.898 338.169ZM217.243 336.101C217.243 337.43 216.228 338.04 215.415 338.04C214.51 338.04 213.864 337.375 213.864 336.341V331.909H212.775V336.415C212.775 338.224 213.735 339.092 215.064 339.092C216.135 339.092 216.837 338.52 217.169 337.8H217.243V339H218.333V331.909H217.243V336.101ZM225.074 334.734C225.074 333.497 225.863 332.795 226.939 332.795C227.964 332.795 228.582 333.442 228.582 334.568V339H229.672V334.494C229.672 332.671 228.703 331.817 227.253 331.817C226.136 331.817 225.499 332.283 225.166 333.017H225.074V329.545H223.984V339H225.074V334.734ZM233.752 339.166C234.989 339.166 235.635 338.501 235.857 338.04H235.912V339H237.002V334.328C237.002 332.075 235.284 331.817 234.38 331.817C233.309 331.817 232.09 332.186 231.536 333.479L232.57 333.848C232.81 333.331 233.378 332.777 234.417 332.777C235.418 332.777 235.912 333.308 235.912 334.217V334.254C235.912 334.781 235.377 334.734 234.084 334.901C232.768 335.071 231.333 335.362 231.333 336.987C231.333 338.372 232.404 339.166 233.752 339.166ZM233.918 338.188C233.05 338.188 232.422 337.8 232.422 337.043C232.422 336.212 233.179 335.953 234.029 335.842C234.49 335.787 235.728 335.658 235.912 335.436V336.433C235.912 337.32 235.211 338.188 233.918 338.188ZM244.535 331.909H243.353L241.396 337.56H241.322L239.364 331.909H238.182L240.805 339H241.913L244.535 331.909ZM248.692 339.148C250.132 339.148 251.185 338.428 251.517 337.357L250.465 337.061C250.188 337.8 249.546 338.169 248.692 338.169C247.413 338.169 246.531 337.343 246.481 335.824H251.628V335.362C251.628 332.722 250.058 331.817 248.581 331.817C246.661 331.817 245.386 333.331 245.386 335.51C245.386 337.689 246.642 339.148 248.692 339.148ZM246.481 334.882C246.554 333.779 247.335 332.795 248.581 332.795C249.763 332.795 250.52 333.682 250.52 334.882H246.481ZM93.9972 357.659H95.0866V353.911H95.179C95.419 354.298 95.8807 355.148 97.2472 355.148C99.0199 355.148 100.257 353.726 100.257 351.473C100.257 349.239 99.0199 347.817 97.2287 347.817C95.8438 347.817 95.419 348.666 95.179 349.036H95.0497V347.909H93.9972V357.659ZM95.0682 351.455C95.0682 349.866 95.7699 348.795 97.0994 348.795C98.4844 348.795 99.1676 349.959 99.1676 351.455C99.1676 352.969 98.4659 354.169 97.0994 354.169C95.7884 354.169 95.0682 353.061 95.0682 351.455ZM101.919 355H103.009V350.513C103.009 349.553 103.766 348.851 104.8 348.851C105.091 348.851 105.391 348.906 105.464 348.925V347.817C105.34 347.808 105.054 347.798 104.892 347.798C104.043 347.798 103.304 348.278 103.045 348.98H102.972V347.909H101.919V355ZM109.421 355.148C111.341 355.148 112.634 353.689 112.634 351.491C112.634 349.276 111.341 347.817 109.421 347.817C107.5 347.817 106.208 349.276 106.208 351.491C106.208 353.689 107.5 355.148 109.421 355.148ZM109.421 354.169C107.962 354.169 107.297 352.913 107.297 351.491C107.297 350.07 107.962 348.795 109.421 348.795C110.88 348.795 111.544 350.07 111.544 351.491C111.544 352.913 110.88 354.169 109.421 354.169ZM117.455 347.909H115.867V347.189C115.867 346.487 116.162 346.118 116.882 346.118C117.196 346.118 117.381 346.192 117.492 346.229L117.805 345.287C117.639 345.213 117.307 345.102 116.771 345.102C115.756 345.102 114.777 345.712 114.777 346.93V347.909H113.632V348.832H114.777V355H115.867V348.832H117.455V347.909ZM121.663 355.148C123.103 355.148 124.155 354.428 124.488 353.357L123.435 353.061C123.158 353.8 122.517 354.169 121.663 354.169C120.384 354.169 119.502 353.343 119.451 351.824H124.599V351.362C124.599 348.722 123.029 347.817 121.552 347.817C119.631 347.817 118.357 349.331 118.357 351.51C118.357 353.689 119.613 355.148 121.663 355.148ZM119.451 350.882C119.525 349.779 120.305 348.795 121.552 348.795C122.734 348.795 123.491 349.682 123.491 350.882H119.451ZM131.279 349.497C130.937 348.491 130.171 347.817 128.767 347.817C127.272 347.817 126.164 348.666 126.164 349.866C126.164 350.845 126.745 351.501 128.047 351.805L129.229 352.082C129.945 352.249 130.282 352.59 130.282 353.08C130.282 353.689 129.635 354.188 128.62 354.188C127.729 354.188 127.17 353.804 126.976 353.043L125.942 353.301C126.196 354.506 127.188 355.148 128.638 355.148C130.286 355.148 131.408 354.248 131.408 353.024C131.408 352.036 130.789 351.413 129.524 351.104L128.472 350.845C127.632 350.637 127.253 350.356 127.253 349.811C127.253 349.202 127.899 348.759 128.767 348.759C129.718 348.759 130.111 349.285 130.3 349.774L131.279 349.497ZM138.071 349.497C137.729 348.491 136.963 347.817 135.559 347.817C134.064 347.817 132.956 348.666 132.956 349.866C132.956 350.845 133.537 351.501 134.839 351.805L136.021 352.082C136.737 352.249 137.074 352.59 137.074 353.08C137.074 353.689 136.427 354.188 135.412 354.188C134.521 354.188 133.962 353.804 133.768 353.043L132.734 353.301C132.988 354.506 133.98 355.148 135.43 355.148C137.078 355.148 138.2 354.248 138.2 353.024C138.2 352.036 137.581 351.413 136.316 351.104L135.264 350.845C134.424 350.637 134.045 350.356 134.045 349.811C134.045 349.202 134.691 348.759 135.559 348.759C136.51 348.759 136.903 349.285 137.092 349.774L138.071 349.497ZM139.84 355H140.929V347.909H139.84V355ZM140.394 346.727C140.819 346.727 141.169 346.395 141.169 345.989C141.169 345.582 140.819 345.25 140.394 345.25C139.969 345.25 139.618 345.582 139.618 345.989C139.618 346.395 139.969 346.727 140.394 346.727ZM145.806 355.148C147.726 355.148 149.019 353.689 149.019 351.491C149.019 349.276 147.726 347.817 145.806 347.817C143.885 347.817 142.593 349.276 142.593 351.491C142.593 353.689 143.885 355.148 145.806 355.148ZM145.806 354.169C144.347 354.169 143.682 352.913 143.682 351.491C143.682 350.07 144.347 348.795 145.806 348.795C147.264 348.795 147.929 350.07 147.929 351.491C147.929 352.913 147.264 354.169 145.806 354.169ZM151.771 350.734C151.771 349.497 152.538 348.795 153.581 348.795C154.592 348.795 155.206 349.456 155.206 350.568V355H156.295V350.494C156.295 348.685 155.331 347.817 153.895 347.817C152.824 347.817 152.159 348.297 151.827 349.017H151.734V347.909H150.682V355H151.771V350.734ZM160.373 355.166C161.61 355.166 162.256 354.501 162.478 354.04H162.533V355H163.623V350.328C163.623 348.075 161.906 347.817 161.001 347.817C159.93 347.817 158.711 348.186 158.157 349.479L159.191 349.848C159.431 349.331 159.999 348.777 161.038 348.777C162.039 348.777 162.533 349.308 162.533 350.217V350.254C162.533 350.781 161.998 350.734 160.705 350.901C159.39 351.071 157.954 351.362 157.954 352.987C157.954 354.372 159.025 355.166 160.373 355.166ZM160.539 354.188C159.671 354.188 159.043 353.8 159.043 353.043C159.043 352.212 159.8 351.953 160.65 351.842C161.112 351.787 162.349 351.658 162.533 351.436V352.433C162.533 353.32 161.832 354.188 160.539 354.188ZM166.701 345.545H165.611V355H166.701V345.545ZM174.439 355.166C175.676 355.166 176.323 354.501 176.544 354.04H176.6V355H177.689V350.328C177.689 348.075 175.972 347.817 175.067 347.817C173.996 347.817 172.777 348.186 172.223 349.479L173.257 349.848C173.498 349.331 174.065 348.777 175.104 348.777C176.106 348.777 176.6 349.308 176.6 350.217V350.254C176.6 350.781 176.064 350.734 174.772 350.901C173.456 351.071 172.02 351.362 172.02 352.987C172.02 354.372 173.091 355.166 174.439 355.166ZM174.605 354.188C173.738 354.188 173.11 353.8 173.11 353.043C173.11 352.212 173.867 351.953 174.716 351.842C175.178 351.787 176.415 351.658 176.6 351.436V352.433C176.6 353.32 175.898 354.188 174.605 354.188ZM179.678 357.659H180.767V353.911H180.86C181.1 354.298 181.561 355.148 182.928 355.148C184.701 355.148 185.938 353.726 185.938 351.473C185.938 349.239 184.701 347.817 182.909 347.817C181.524 347.817 181.1 348.666 180.86 349.036H180.73V347.909H179.678V357.659ZM180.749 351.455C180.749 349.866 181.451 348.795 182.78 348.795C184.165 348.795 184.848 349.959 184.848 351.455C184.848 352.969 184.147 354.169 182.78 354.169C181.469 354.169 180.749 353.061 180.749 351.455ZM187.6 357.659H188.689V353.911H188.782C189.022 354.298 189.483 355.148 190.85 355.148C192.622 355.148 193.86 353.726 193.86 351.473C193.86 349.239 192.622 347.817 190.831 347.817C189.446 347.817 189.022 348.666 188.782 349.036H188.652V347.909H187.6V357.659ZM188.671 351.455C188.671 349.866 189.372 348.795 190.702 348.795C192.087 348.795 192.77 349.959 192.77 351.455C192.77 352.969 192.068 354.169 190.702 354.169C189.391 354.169 188.671 353.061 188.671 351.455Z" fill="#747474"/>
<defs>
<filter id="filter0_f_13_235" x="16" y="0" width="433" height="656" filterUnits="userSpaceOnUse" color-interpolation-filters="sRGB">
<feFlood flood-opacity="0" result="BackgroundImageFix"/>
<feBlend mode="normal" in="SourceGraphic" in2="BackgroundImageFix" result="shape"/>
<feGaussianBlur stdDeviation="50" result="effect1_foregroundBlur_13_235"/>
</filter>
<filter id="filter1_d_13_235" x="88" y="421" width="226" height="112" filterUnits="userSpaceOnUse" color-interpolation-filters="sRGB">
<feFlood flood-opacity="0" result="BackgroundImageFix"/>
<feColorMatrix in="SourceAlpha" type="matrix" values="0 0 0 0 0 0 0 0 0 0 0 0 0 0 0 0 0 0 127 0" result="hardAlpha"/>
<feOffset dy="4"/>
<feGaussianBlur stdDeviation="8.5"/>
<feComposite in2="hardAlpha" operator="out"/>
<feColorMatrix type="matrix" values="0 0 0 0 0 0 0 0 0 0 0 0 0 0 0 0 0 0 0.06 0"/>
<feBlend mode="normal" in2="BackgroundImageFix" result="effect1_dropShadow_13_235"/>
<feBlend mode="normal" in="SourceGraphic" in2="effect1_dropShadow_13_235" result="shape"/>
</filter>
<filter id="filter2_d_13_235" x="88" y="338" width="226" height="112" filterUnits="userSpaceOnUse" color-interpolation-filters="sRGB">
<feFlood flood-opacity="0" result="BackgroundImageFix"/>
<feColorMatrix in="SourceAlpha" type="matrix" values="0 0 0 0 0 0 0 0 0 0 0 0 0 0 0 0 0 0 127 0" result="hardAlpha"/>
<feOffset dy="4"/>
<feGaussianBlur stdDeviation="8.5"/>
<feComposite in2="hardAlpha" operator="out"/>
<feColorMatrix type="matrix" values="0 0 0 0 0 0 0 0 0 0 0 0 0 0 0 0 0 0 0.06 0"/>
<feBlend mode="normal" in2="BackgroundImageFix" result="effect1_dropShadow_13_235"/>
<feBlend mode="normal" in="SourceGraphic" in2="effect1_dropShadow_13_235" result="shape"/>
</filter>
<filter id="filter3_d_13_235" x="0" y="113" width="395" height="203" filterUnits="userSpaceOnUse" color-interpolation-filters="sRGB">
<feFlood flood-opacity="0" result="BackgroundImageFix"/>
<feColorMatrix in="SourceAlpha" type="matrix" values="0 0 0 0 0 0 0 0 0 0 0 0 0 0 0 0 0 0 127 0" result="hardAlpha"/>
<feOffset dx="-4" dy="10"/>
<feGaussianBlur stdDeviation="33.5"/>
<feComposite in2="hardAlpha" operator="out"/>
<feColorMatrix type="matrix" values="0 0 0 0 0 0 0 0 0 0 0 0 0 0 0 0 0 0 0.06 0"/>
<feBlend mode="normal" in2="BackgroundImageFix" result="effect1_dropShadow_13_235"/>
<feBlend mode="normal" in="SourceGraphic" in2="effect1_dropShadow_13_235" result="shape"/>
</filter>
<filter id="filter4_d_13_235" x="0" y="195" width="395" height="259" filterUnits="userSpaceOnUse" color-interpolation-filters="sRGB">
<feFlood flood-opacity="0" result="BackgroundImageFix"/>
<feColorMatrix in="SourceAlpha" type="matrix" values="0 0 0 0 0 0 0 0 0 0 0 0 0 0 0 0 0 0 127 0" result="hardAlpha"/>
<feOffset dx="-4" dy="10"/>
<feGaussianBlur stdDeviation="33.5"/>
<feComposite in2="hardAlpha" operator="out"/>
<feColorMatrix type="matrix" values="0 0 0 0 0 0 0 0 0 0 0 0 0 0 0 0 0 0 0.06 0"/>
<feBlend mode="normal" in2="BackgroundImageFix" result="effect1_dropShadow_13_235"/>
<feBlend mode="normal" in="SourceGraphic" in2="effect1_dropShadow_13_235" result="shape"/>
</filter>
<clipPath id="clip0_13_235">
<rect width="37.9342" height="47.669" fill="white" transform="translate(180 74)"/>
</clipPath>
</defs>
</svg>
