<?xml version="1.0" encoding="utf-8"?>
<!-- Generator: Adobe Illustrator 25.3.0, SVG Export Plug-In . SVG Version: 6.00 Build 0)  -->
<svg version="1.1" id="Livello_1" xmlns="http://www.w3.org/2000/svg" xmlns:xlink="http://www.w3.org/1999/xlink" x="0px" y="0px"
	 viewBox="0 0 592 656" style="enable-background:new 0 0 592 656;" xml:space="preserve">
<style type="text/css">
	.st0{opacity:0.1;fill:#4285F4;enable-background:new    ;}
	.st1{fill:none;stroke:#4285F4;stroke-width:5;}
	.st2{fill:none;stroke:#EA4335;stroke-width:1.8387;}
	.st3{fill:#4285F4;}
	.st4{fill:#FBBC05;}
	.st5{fill-opacity:0.1;}
	.st6{fill:#F5F5F5;}
	.st7{fill:#FFFFFF;}
	.st8{fill:#FFFFFF;filter:url(#Adobe_OpacityMaskFilter);}
	.st9{mask:url(#mask0_13_235_1_);}
	.st10{fill:#4285F4;fill-opacity:0.26;}
	.st11{fill:#FBBC05;fill-opacity:0.26;}
	.st12{fill:#E5E5E5;}
	.st13{fill:#E3ECFD;}
	.st14{fill:#181818;}
	.st15{fill:#747474;}
</style>
<circle class="st0" cx="332" cy="270" r="260"/>
<path class="st1" d="M470.2,252.9l15-16.4c2.4-2.6,6.5-2.8,9.2-0.4l16.4,15c2.6,2.4,2.8,6.5,0.4,9.2l-15,16.4
	c-2.4,2.6-6.5,2.8-9.2,0.4l-16.4-15C467.9,259.7,467.8,255.6,470.2,252.9z"/>
<path class="st2" d="M28,275.9l10.6-3.8c1.9-0.7,4,0.3,4.6,2.2l3.8,10.6c0.7,1.9-0.3,4-2.2,4.6l-10.6,3.8c-1.9,0.7-4-0.3-4.6-2.2
	l-3.8-10.6C25.1,278.7,26.1,276.6,28,275.9z"/>
<circle class="st3" cx="491.5" cy="70.5" r="27.5"/>
<circle class="st4" cx="65.5" cy="18" r="15"/>
<circle class="st4" cx="421.5" cy="206.5" r="7.5"/>
<g>
	<path class="st5" d="M139,100h187c12.7,0,23,10.3,23,23v410c0,12.7-10.3,23-23,23H139c-12.7,0-23-10.3-23-23V123
		C116,110.3,126.3,100,139,100z"/>
</g>
<path class="st6" d="M107,43h187c12.7,0,23,10.3,23,23v410c0,12.7-10.3,23-23,23H107c-12.7,0-23-10.3-23-23V66
	C84,53.3,94.3,43,107,43z"/>
<path class="st7" d="M110,52h182c8.3,0,15,6.7,15,15v408c0,8.3-6.7,15-15,15H110c-8.3,0-15-6.7-15-15V67C95,58.7,101.7,52,110,52z"
	/>
<defs>
	<filter id="Adobe_OpacityMaskFilter" filterUnits="userSpaceOnUse" x="105" y="130.9" width="192" height="381.1">
		<feColorMatrix  type="matrix" values="1 0 0 0 0  0 1 0 0 0  0 0 1 0 0  0 0 0 1 0"/>
	</filter>
</defs>
<mask maskUnits="userSpaceOnUse" x="105" y="130.9" width="192" height="381.1" id="mask0_13_235_1_">
	<path class="st8" d="M110,52h182c8.3,0,15,6.7,15,15v408c0,8.3-6.7,15-15,15H110c-8.3,0-15-6.7-15-15V67C95,58.7,101.7,52,110,52z"
		/>
</mask>
<g class="st9">
	<path d="M166.2,143.1c-1,0-2-0.2-2.8-0.7c-0.8-0.5-1.5-1.2-2-2c-0.5-0.9-0.7-1.8-0.7-2.9c0-1.1,0.2-2.1,0.7-2.9
		c0.5-0.9,1.2-1.5,2-2c0.8-0.5,1.8-0.7,2.8-0.7c1,0,2,0.2,2.8,0.7c0.8,0.5,1.5,1.1,2,2s0.7,1.8,0.7,2.9c0,1.1-0.2,2.1-0.7,2.9
		c-0.5,0.9-1.2,1.5-2,2C168.2,142.9,167.3,143.1,166.2,143.1z M166.2,141.9c0.8,0,1.5-0.2,2.1-0.5c0.6-0.4,1.1-0.9,1.5-1.5
		c0.4-0.7,0.5-1.4,0.5-2.3c0-0.9-0.2-1.7-0.5-2.3c-0.3-0.7-0.8-1.2-1.4-1.5s-1.3-0.5-2.1-0.5c-0.8,0-1.5,0.2-2.1,0.5
		c-0.6,0.4-1.1,0.9-1.5,1.5c-0.3,0.7-0.5,1.4-0.5,2.3c0,0.9,0.2,1.7,0.5,2.3c0.4,0.7,0.8,1.2,1.5,1.5
		C164.8,141.7,165.5,141.9,166.2,141.9z M178,134.1c1.1,0,1.9,0.3,2.6,1c0.7,0.6,1,1.6,1,2.8v5.1h-1.4v-4.9c0-0.9-0.2-1.5-0.7-2
		c-0.4-0.5-1-0.7-1.8-0.7c-0.8,0-1.4,0.2-1.8,0.7c-0.4,0.5-0.7,1.2-0.7,2.1v4.8h-1.4v-8.7h1.4v1.2c0.3-0.4,0.7-0.8,1.2-1
		C176.8,134.3,177.4,134.1,178,134.1z M191.8,138.3c0,0.3,0,0.6,0,0.9h-7c0.1,0.9,0.3,1.5,0.9,2c0.5,0.5,1.2,0.7,2,0.7
		c0.6,0,1.1-0.1,1.6-0.4c0.4-0.3,0.7-0.7,0.9-1.2h1.6c-0.2,0.8-0.7,1.5-1.4,2c-0.7,0.5-1.6,0.8-2.6,0.8c-0.8,0-1.6-0.2-2.2-0.6
		c-0.6-0.4-1.2-0.9-1.5-1.6c-0.4-0.7-0.6-1.5-0.6-2.4c0-0.9,0.2-1.7,0.5-2.4s0.9-1.2,1.5-1.6c0.7-0.4,1.4-0.6,2.3-0.6
		c0.8,0,1.6,0.2,2.2,0.5c0.6,0.4,1.1,0.9,1.5,1.5C191.6,136.8,191.8,137.5,191.8,138.3z M190.3,138c0-0.6-0.1-1-0.4-1.4
		c-0.2-0.4-0.6-0.7-1-0.9c-0.4-0.2-0.9-0.3-1.4-0.3c-0.7,0-1.4,0.2-1.9,0.7c-0.5,0.5-0.8,1.1-0.9,1.9H190.3z M201.5,135.5h-1.8v7.5
		h-1.4v-7.5h-1.1v-1.2h1.1v-0.6c0-1,0.2-1.7,0.7-2.1c0.5-0.5,1.3-0.7,2.4-0.7v1.2c-0.6,0-1.1,0.1-1.4,0.4c-0.3,0.2-0.4,0.7-0.4,1.2
		v0.6h1.8V135.5z M207,143.1c-0.8,0-1.6-0.2-2.2-0.6c-0.7-0.4-1.2-0.9-1.6-1.6c-0.4-0.7-0.6-1.5-0.6-2.4c0-0.9,0.2-1.7,0.6-2.4
		c0.4-0.7,0.9-1.2,1.6-1.6c0.7-0.4,1.4-0.6,2.2-0.6c0.8,0,1.6,0.2,2.2,0.6c0.7,0.4,1.2,0.9,1.6,1.6c0.4,0.7,0.6,1.5,0.6,2.4
		c0,0.9-0.2,1.7-0.6,2.4c-0.4,0.7-0.9,1.2-1.6,1.6C208.6,143,207.8,143.1,207,143.1z M207,141.9c0.5,0,1-0.1,1.5-0.4
		c0.5-0.2,0.8-0.6,1.1-1.1c0.3-0.5,0.4-1.1,0.4-1.8c0-0.7-0.1-1.3-0.4-1.8c-0.3-0.5-0.6-0.8-1.1-1.1c-0.4-0.2-0.9-0.4-1.4-0.4
		c-0.5,0-1,0.1-1.5,0.4c-0.4,0.2-0.8,0.6-1,1.1c-0.3,0.5-0.4,1.1-0.4,1.8c0,0.7,0.1,1.3,0.4,1.8c0.3,0.5,0.6,0.9,1,1.1
		C206,141.8,206.5,141.9,207,141.9z M214.8,135.7c0.3-0.5,0.6-0.9,1.1-1.2c0.5-0.3,1.1-0.4,1.7-0.4v1.5h-0.4c-1.6,0-2.4,0.9-2.4,2.6
		v4.7h-1.4v-8.7h1.4V135.7z M223,138.6c0-0.9,0.2-1.7,0.5-2.3c0.4-0.7,0.9-1.2,1.5-1.6c0.6-0.4,1.3-0.6,2.1-0.6c0.8,0,1.4,0.2,2,0.5
		c0.6,0.3,1,0.7,1.3,1.2v-1.6h1.5v8.7h-1.5v-1.6c-0.3,0.5-0.7,0.9-1.3,1.3c-0.6,0.3-1.2,0.5-2,0.5c-0.8,0-1.5-0.2-2.1-0.6
		s-1.1-0.9-1.5-1.6C223.2,140.3,223,139.5,223,138.6z M230.4,138.6c0-0.7-0.1-1.2-0.4-1.7c-0.3-0.5-0.6-0.9-1.1-1.1
		c-0.4-0.3-0.9-0.4-1.5-0.4c-0.5,0-1,0.1-1.5,0.4c-0.4,0.3-0.8,0.6-1.1,1.1c-0.3,0.5-0.4,1.1-0.4,1.7c0,0.7,0.1,1.2,0.4,1.7
		c0.3,0.5,0.6,0.9,1.1,1.1c0.4,0.3,0.9,0.4,1.5,0.4c0.5,0,1-0.1,1.5-0.4c0.5-0.3,0.8-0.6,1.1-1.1
		C230.2,139.9,230.4,139.3,230.4,138.6z M235.7,131.2V143h-1.4v-11.8H235.7z M239.6,131.2V143h-1.4v-11.8H239.6z"/>
	<g>
		<path class="st7" d="M111,434h180c3.3,0,6,2.7,6,6v66c0,3.3-2.7,6-6,6H111c-3.3,0-6-2.7-6-6v-66C105,436.7,107.7,434,111,434z"/>
	</g>
	<rect x="119" y="446" class="st10" width="164" height="7"/>
	<rect x="119" y="458" class="st11" width="103" height="7"/>
	<rect x="119" y="470" class="st10" width="145" height="7"/>
	<rect x="119" y="482" class="st12" width="164" height="7"/>
	<g>
		<path class="st7" d="M111,351h180c3.3,0,6,2.7,6,6v66c0,3.3-2.7,6-6,6H111c-3.3,0-6-2.7-6-6v-66C105,353.7,107.7,351,111,351z"/>
	</g>
	<rect x="119" y="363" class="st10" width="164" height="6"/>
	<rect x="119" y="375" class="st11" width="103" height="6"/>
	<rect x="119" y="387" class="st10" width="145" height="6"/>
	<rect x="119" y="399" class="st12" width="164" height="6"/>
	<rect x="119" y="411" class="st12" width="164" height="7"/>
</g>
<g>
	<path class="st7" d="M80,170h243c5,0,9,4,9,9v51c0,5-4,9-9,9H80c-5,0-9-4-9-9v-51C71,174,75,170,80,170z"/>
</g>
<path class="st13" d="M279,187h21c3.3,0,6,2.7,6,6v22c0,3.3-2.7,6-6,6h-21c-3.3,0-6-2.7-6-6v-22C273,189.7,275.7,187,279,187z"/>
<path class="st3" d="M283,198c0-0.3,0.1-0.5,0.3-0.7c0.2-0.2,0.4-0.3,0.7-0.3h12c0.3,0,0.5,0.1,0.7,0.3c0.2,0.2,0.3,0.4,0.3,0.7v2
	c0,0.3-0.1,0.5-0.3,0.7c-0.2,0.2-0.4,0.3-0.7,0.3h-12c-0.3,0-0.5-0.1-0.7-0.3c-0.2-0.2-0.3-0.4-0.3-0.7V198z M283,204
	c0-0.3,0.1-0.5,0.3-0.7c0.2-0.2,0.4-0.3,0.7-0.3h6c0.3,0,0.5,0.1,0.7,0.3c0.2,0.2,0.3,0.4,0.3,0.7v6c0,0.3-0.1,0.5-0.3,0.7
	c-0.2,0.2-0.4,0.3-0.7,0.3h-6c-0.3,0-0.5-0.1-0.7-0.3c-0.2-0.2-0.3-0.4-0.3-0.7V204z M294,203c-0.3,0-0.5,0.1-0.7,0.3
	c-0.2,0.2-0.3,0.4-0.3,0.7v6c0,0.3,0.1,0.5,0.3,0.7c0.2,0.2,0.4,0.3,0.7,0.3h2c0.3,0,0.5-0.1,0.7-0.3c0.2-0.2,0.3-0.4,0.3-0.7v-6
	c0-0.3-0.1-0.5-0.3-0.7c-0.2-0.2-0.4-0.3-0.7-0.3H294z"/>
<path class="st14" d="M104.1,210l-2.6-4.5h-1.7v4.5h-1.4v-11.1h3.6c0.8,0,1.5,0.1,2.1,0.4c0.6,0.3,1,0.7,1.3,1.2
	c0.3,0.5,0.4,1,0.4,1.7c0,0.8-0.2,1.4-0.7,2c-0.4,0.6-1.1,1-2,1.2l2.8,4.6H104.1z M99.7,204.3h2.1c0.8,0,1.4-0.2,1.8-0.6
	c0.4-0.4,0.6-0.9,0.6-1.6c0-0.7-0.2-1.2-0.6-1.5c-0.4-0.4-1-0.5-1.8-0.5h-2.1V204.3z M115.8,205.3c0,0.3,0,0.6,0,0.9h-7
	c0.1,0.9,0.3,1.5,0.9,2c0.5,0.5,1.2,0.7,2,0.7c0.6,0,1.1-0.1,1.6-0.4c0.4-0.3,0.7-0.7,0.9-1.2h1.6c-0.2,0.8-0.7,1.5-1.4,2
	c-0.7,0.5-1.6,0.8-2.6,0.8c-0.8,0-1.6-0.2-2.2-0.6c-0.6-0.4-1.2-0.9-1.5-1.6c-0.4-0.7-0.6-1.5-0.6-2.4c0-0.9,0.2-1.7,0.5-2.4
	s0.9-1.2,1.5-1.6c0.7-0.4,1.4-0.6,2.3-0.6c0.8,0,1.6,0.2,2.2,0.5c0.6,0.4,1.1,0.9,1.5,1.5C115.7,203.8,115.8,204.5,115.8,205.3z
	 M114.3,205c0-0.6-0.1-1-0.4-1.4c-0.2-0.4-0.6-0.7-1-0.9c-0.4-0.2-0.9-0.3-1.4-0.3c-0.7,0-1.4,0.2-1.9,0.7c-0.5,0.5-0.8,1.1-0.9,1.9
	H114.3z M120.8,210.1c-0.7,0-1.3-0.1-1.8-0.3c-0.5-0.2-0.9-0.6-1.3-1c-0.3-0.4-0.5-0.9-0.5-1.4h1.5c0,0.4,0.2,0.8,0.6,1.1
	c0.4,0.3,0.9,0.4,1.4,0.4c0.6,0,1-0.1,1.3-0.4s0.5-0.6,0.5-0.9c0-0.4-0.2-0.7-0.5-0.8c-0.3-0.2-0.9-0.4-1.6-0.6
	c-0.6-0.2-1.2-0.3-1.6-0.5c-0.4-0.2-0.8-0.4-1-0.8c-0.3-0.3-0.4-0.8-0.4-1.4c0-0.4,0.1-0.9,0.4-1.2c0.3-0.4,0.6-0.7,1.1-0.9
	c0.5-0.2,1-0.3,1.7-0.3c1,0,1.7,0.2,2.3,0.7c0.6,0.5,0.9,1.2,1,2h-1.4c0-0.5-0.2-0.8-0.6-1.1c-0.3-0.3-0.8-0.4-1.3-0.4
	c-0.5,0-0.9,0.1-1.2,0.3c-0.3,0.2-0.5,0.5-0.5,0.9c0,0.3,0.1,0.5,0.3,0.7c0.2,0.2,0.4,0.3,0.7,0.4c0.3,0.1,0.7,0.2,1.2,0.4
	c0.6,0.2,1.1,0.3,1.5,0.5c0.4,0.2,0.7,0.4,1,0.7c0.3,0.3,0.4,0.8,0.4,1.3c0,0.5-0.1,0.9-0.4,1.3c-0.3,0.4-0.6,0.7-1.1,0.9
	C122,210,121.5,210.1,120.8,210.1z M127.5,202.9c0.3-0.5,0.7-0.9,1.3-1.2c0.6-0.3,1.2-0.5,2-0.5c0.8,0,1.5,0.2,2.1,0.6
	c0.6,0.4,1.1,0.9,1.5,1.6c0.4,0.7,0.5,1.4,0.5,2.3c0,0.9-0.2,1.7-0.5,2.4c-0.4,0.7-0.9,1.2-1.5,1.6c-0.6,0.4-1.3,0.6-2.1,0.6
	c-0.7,0-1.4-0.2-2-0.5c-0.6-0.3-1-0.8-1.3-1.3v5.7H126v-12.8h1.4V202.9z M133.4,205.6c0-0.7-0.1-1.2-0.4-1.7
	c-0.3-0.5-0.6-0.9-1.1-1.1c-0.4-0.3-0.9-0.4-1.5-0.4c-0.5,0-1,0.1-1.5,0.4c-0.4,0.3-0.8,0.6-1.1,1.1c-0.3,0.5-0.4,1.1-0.4,1.7
	c0,0.7,0.1,1.2,0.4,1.7c0.3,0.5,0.6,0.9,1.1,1.1c0.5,0.3,0.9,0.4,1.5,0.4c0.5,0,1-0.1,1.5-0.4c0.5-0.3,0.8-0.6,1.1-1.1
	C133.3,206.9,133.4,206.3,133.4,205.6z M140.6,210.1c-0.8,0-1.6-0.2-2.2-0.6c-0.7-0.4-1.2-0.9-1.6-1.6c-0.4-0.7-0.6-1.5-0.6-2.4
	c0-0.9,0.2-1.7,0.6-2.4c0.4-0.7,0.9-1.2,1.6-1.6c0.7-0.4,1.4-0.6,2.2-0.6c0.8,0,1.6,0.2,2.2,0.6c0.7,0.4,1.2,0.9,1.6,1.6
	c0.4,0.7,0.6,1.5,0.6,2.4c0,0.9-0.2,1.7-0.6,2.4c-0.4,0.7-0.9,1.2-1.6,1.6C142.2,210,141.4,210.1,140.6,210.1z M140.6,208.9
	c0.5,0,1-0.1,1.5-0.4c0.5-0.2,0.8-0.6,1.1-1.1c0.3-0.5,0.4-1.1,0.4-1.8c0-0.7-0.1-1.3-0.4-1.8c-0.3-0.5-0.6-0.8-1.1-1.1
	c-0.4-0.2-0.9-0.4-1.4-0.4c-0.5,0-1,0.1-1.5,0.4c-0.4,0.2-0.8,0.6-1,1.1c-0.3,0.5-0.4,1.1-0.4,1.8c0,0.7,0.1,1.3,0.4,1.8
	c0.3,0.5,0.6,0.9,1,1.1C139.6,208.8,140.1,208.9,140.6,208.9z M151.2,201.1c1.1,0,1.9,0.3,2.6,1c0.7,0.6,1,1.6,1,2.8v5.1h-1.4v-4.9
	c0-0.9-0.2-1.5-0.7-2c-0.4-0.5-1-0.7-1.8-0.7c-0.8,0-1.4,0.2-1.8,0.7c-0.4,0.5-0.7,1.2-0.7,2.1v4.8h-1.4v-8.7h1.4v1.2
	c0.3-0.4,0.7-0.8,1.2-1C150.1,201.3,150.6,201.1,151.2,201.1z M160.2,210.1c-0.7,0-1.3-0.1-1.8-0.3c-0.5-0.2-0.9-0.6-1.3-1
	c-0.3-0.4-0.5-0.9-0.5-1.4h1.5c0,0.4,0.2,0.8,0.6,1.1c0.4,0.3,0.9,0.4,1.4,0.4c0.6,0,1-0.1,1.3-0.4c0.3-0.2,0.5-0.6,0.5-0.9
	c0-0.4-0.2-0.7-0.5-0.8c-0.3-0.2-0.9-0.4-1.6-0.6c-0.6-0.2-1.2-0.3-1.6-0.5c-0.4-0.2-0.8-0.4-1-0.8c-0.3-0.3-0.4-0.8-0.4-1.4
	c0-0.4,0.1-0.9,0.4-1.2s0.6-0.7,1.1-0.9c0.5-0.2,1-0.3,1.7-0.3c1,0,1.7,0.2,2.3,0.7c0.6,0.5,0.9,1.2,1,2h-1.4c0-0.5-0.2-0.8-0.6-1.1
	c-0.3-0.3-0.8-0.4-1.3-0.4c-0.5,0-0.9,0.1-1.2,0.3c-0.3,0.2-0.5,0.5-0.5,0.9c0,0.3,0.1,0.5,0.3,0.7c0.2,0.2,0.4,0.3,0.7,0.4
	c0.3,0.1,0.7,0.2,1.2,0.4c0.6,0.2,1.1,0.3,1.5,0.5c0.4,0.2,0.7,0.4,1,0.7c0.3,0.3,0.4,0.8,0.4,1.3c0,0.5-0.1,0.9-0.4,1.3
	c-0.3,0.4-0.6,0.7-1.1,0.9C161.4,210,160.8,210.1,160.2,210.1z M166.2,199.9c-0.3,0-0.5-0.1-0.7-0.3c-0.2-0.2-0.3-0.4-0.3-0.7
	c0-0.3,0.1-0.5,0.3-0.7c0.2-0.2,0.4-0.3,0.7-0.3c0.3,0,0.5,0.1,0.7,0.3c0.2,0.2,0.3,0.4,0.3,0.7c0,0.3-0.1,0.5-0.3,0.7
	C166.6,199.8,166.4,199.9,166.2,199.9z M166.9,201.3v8.7h-1.4v-8.7H166.9z M172.6,208.7l2.7-7.4h1.5l-3.4,8.7h-1.7l-3.4-8.7h1.6
	L172.6,208.7z M186.2,205.3c0,0.3,0,0.6,0,0.9h-7c0.1,0.9,0.3,1.5,0.9,2c0.5,0.5,1.2,0.7,2,0.7c0.6,0,1.1-0.1,1.6-0.4
	c0.4-0.3,0.7-0.7,0.9-1.2h1.6c-0.2,0.8-0.7,1.5-1.4,2c-0.7,0.5-1.6,0.8-2.6,0.8c-0.8,0-1.6-0.2-2.2-0.6c-0.6-0.4-1.2-0.9-1.5-1.6
	c-0.4-0.7-0.6-1.5-0.6-2.4c0-0.9,0.2-1.7,0.5-2.4c0.4-0.7,0.9-1.2,1.5-1.6c0.7-0.4,1.4-0.6,2.3-0.6c0.8,0,1.6,0.2,2.2,0.5
	s1.1,0.9,1.5,1.5C186,203.8,186.2,204.5,186.2,205.3z M184.7,205c0-0.6-0.1-1-0.4-1.4c-0.2-0.4-0.6-0.7-1-0.9
	c-0.4-0.2-0.9-0.3-1.4-0.3c-0.7,0-1.4,0.2-1.9,0.7c-0.5,0.5-0.8,1.1-0.9,1.9H184.7z M191.8,205.6c0-0.9,0.2-1.7,0.5-2.3
	c0.4-0.7,0.9-1.2,1.5-1.6c0.6-0.4,1.3-0.6,2.1-0.6c0.7,0,1.3,0.2,1.9,0.5c0.6,0.3,1,0.7,1.3,1.2v-4.6h1.5V210h-1.5v-1.6
	c-0.3,0.5-0.7,0.9-1.3,1.3c-0.6,0.3-1.2,0.5-2,0.5c-0.8,0-1.5-0.2-2.1-0.6c-0.6-0.4-1.1-0.9-1.5-1.6
	C192,207.3,191.8,206.5,191.8,205.6z M199.2,205.6c0-0.7-0.1-1.2-0.4-1.7c-0.3-0.5-0.6-0.9-1.1-1.1c-0.4-0.3-0.9-0.4-1.5-0.4
	c-0.5,0-1,0.1-1.5,0.4c-0.4,0.3-0.8,0.6-1.1,1.1c-0.3,0.5-0.4,1.1-0.4,1.7c0,0.7,0.1,1.2,0.4,1.7c0.3,0.5,0.6,0.9,1.1,1.1
	c0.4,0.3,0.9,0.4,1.5,0.4c0.5,0,1-0.1,1.5-0.4c0.5-0.3,0.8-0.6,1.1-1.1C199,206.9,199.2,206.3,199.2,205.6z M211,205.3
	c0,0.3,0,0.6,0,0.9h-7c0.1,0.9,0.3,1.5,0.9,2c0.5,0.5,1.2,0.7,2,0.7c0.6,0,1.1-0.1,1.6-0.4c0.4-0.3,0.7-0.7,0.9-1.2h1.6
	c-0.2,0.8-0.7,1.5-1.4,2c-0.7,0.5-1.6,0.8-2.6,0.8c-0.8,0-1.6-0.2-2.2-0.6c-0.6-0.4-1.2-0.9-1.5-1.6c-0.4-0.7-0.6-1.5-0.6-2.4
	c0-0.9,0.2-1.7,0.5-2.4s0.9-1.2,1.5-1.6c0.7-0.4,1.4-0.6,2.3-0.6c0.8,0,1.6,0.2,2.2,0.5c0.6,0.4,1.1,0.9,1.5,1.5
	C210.8,203.8,211,204.5,211,205.3z M209.5,205c0-0.6-0.1-1-0.4-1.4c-0.2-0.4-0.6-0.7-1-0.9c-0.4-0.2-0.9-0.3-1.4-0.3
	c-0.7,0-1.4,0.2-1.9,0.7c-0.5,0.5-0.8,1.1-0.9,1.9H209.5z M216,210.1c-0.7,0-1.3-0.1-1.8-0.3c-0.5-0.2-0.9-0.6-1.3-1
	c-0.3-0.4-0.5-0.9-0.5-1.4h1.5c0,0.4,0.2,0.8,0.6,1.1c0.4,0.3,0.9,0.4,1.4,0.4c0.6,0,1-0.1,1.3-0.4c0.3-0.2,0.5-0.6,0.5-0.9
	c0-0.4-0.2-0.7-0.5-0.8c-0.3-0.2-0.9-0.4-1.6-0.6c-0.6-0.2-1.2-0.3-1.6-0.5c-0.4-0.2-0.8-0.4-1-0.8c-0.3-0.3-0.4-0.8-0.4-1.4
	c0-0.4,0.1-0.9,0.4-1.2s0.6-0.7,1.1-0.9c0.5-0.2,1-0.3,1.7-0.3c1,0,1.7,0.2,2.3,0.7c0.6,0.5,0.9,1.2,1,2h-1.4c0-0.5-0.2-0.8-0.6-1.1
	c-0.3-0.3-0.8-0.4-1.3-0.4c-0.5,0-0.9,0.1-1.2,0.3c-0.3,0.2-0.5,0.5-0.5,0.9c0,0.3,0.1,0.5,0.3,0.7c0.2,0.2,0.4,0.3,0.7,0.4
	c0.3,0.1,0.7,0.2,1.2,0.4c0.6,0.2,1.1,0.3,1.5,0.5c0.4,0.2,0.7,0.4,1,0.7c0.3,0.3,0.4,0.8,0.4,1.3c0,0.5-0.1,0.9-0.4,1.3
	c-0.3,0.4-0.6,0.7-1.1,0.9C217.2,210,216.6,210.1,216,210.1z M222,199.9c-0.3,0-0.5-0.1-0.7-0.3c-0.2-0.2-0.3-0.4-0.3-0.7
	c0-0.3,0.1-0.5,0.3-0.7s0.4-0.3,0.7-0.3c0.3,0,0.5,0.1,0.7,0.3c0.2,0.2,0.3,0.4,0.3,0.7c0,0.3-0.1,0.5-0.3,0.7
	C222.4,199.8,222.2,199.9,222,199.9z M222.7,201.3v8.7h-1.4v-8.7H222.7z M228.7,201.1c0.8,0,1.4,0.2,2,0.5c0.6,0.3,1,0.7,1.3,1.2
	v-1.6h1.5v8.9c0,0.8-0.2,1.5-0.5,2.1c-0.3,0.6-0.8,1.1-1.5,1.5c-0.6,0.3-1.4,0.5-2.2,0.5c-1.1,0-2.1-0.3-2.9-0.8
	c-0.8-0.5-1.2-1.3-1.4-2.2h1.4c0.2,0.5,0.5,1,1,1.3c0.5,0.3,1.1,0.5,1.8,0.5c0.8,0,1.4-0.2,1.9-0.7c0.5-0.5,0.8-1.2,0.8-2.1v-1.8
	c-0.3,0.5-0.7,0.9-1.3,1.3c-0.6,0.3-1.2,0.5-2,0.5c-0.8,0-1.5-0.2-2.1-0.6c-0.6-0.4-1.1-0.9-1.5-1.6c-0.4-0.7-0.5-1.5-0.5-2.4
	c0-0.9,0.2-1.7,0.5-2.3c0.4-0.7,0.9-1.2,1.5-1.6C227.2,201.3,227.9,201.1,228.7,201.1z M232,205.6c0-0.7-0.1-1.2-0.4-1.7
	c-0.3-0.5-0.6-0.9-1.1-1.1c-0.4-0.3-0.9-0.4-1.5-0.4c-0.5,0-1,0.1-1.5,0.4c-0.4,0.3-0.8,0.6-1.1,1.1c-0.3,0.5-0.4,1.1-0.4,1.7
	c0,0.7,0.1,1.2,0.4,1.7c0.3,0.5,0.6,0.9,1.1,1.1c0.4,0.3,0.9,0.4,1.5,0.4c0.5,0,1-0.1,1.5-0.4c0.5-0.3,0.8-0.6,1.1-1.1
	C231.8,206.9,232,206.3,232,205.6z M240.1,201.1c1.1,0,1.9,0.3,2.6,1c0.7,0.6,1,1.6,1,2.8v5.1h-1.4v-4.9c0-0.9-0.2-1.5-0.7-2
	c-0.4-0.5-1-0.7-1.8-0.7c-0.8,0-1.4,0.2-1.8,0.7c-0.4,0.5-0.7,1.2-0.7,2.1v4.8h-1.4v-8.7h1.4v1.2c0.3-0.4,0.7-0.8,1.2-1
	C239,201.3,239.5,201.1,240.1,201.1z"/>
<g>
	<path class="st7" d="M80,252h243c5,0,9,4,9,9v107c0,5-4,9-9,9H80c-5,0-9-4-9-9V261C71,256,75,252,80,252z"/>
</g>
<path d="M96.9,283.1c1.9,0,3.2-1.5,3.2-3.7c0-2.2-1.3-3.7-3.2-3.7c-1.9,0-3.2,1.5-3.2,3.7C93.7,281.7,95,283.1,96.9,283.1z
	 M96.9,282.2c-1.5,0-2.1-1.3-2.1-2.7c0-1.4,0.7-2.7,2.1-2.7s2.1,1.3,2.1,2.7C99,280.9,98.3,282.2,96.9,282.2z M102.8,278.7
	c0-1.2,0.8-1.9,1.8-1.9c1,0,1.6,0.7,1.6,1.8v4.4h1.1v-4.5c0-1.8-1-2.7-2.4-2.7c-1.1,0-1.7,0.5-2.1,1.2h-0.1v-1.1h-1.1v7.1h1.1V278.7
	z M112.3,283.1c1.4,0,2.5-0.7,2.8-1.8l-1.1-0.3c-0.3,0.7-0.9,1.1-1.8,1.1c-1.3,0-2.2-0.8-2.2-2.3h5.1v-0.5c0-2.6-1.6-3.5-3-3.5
	c-1.9,0-3.2,1.5-3.2,3.7C109,281.7,110.3,283.1,112.3,283.1z M110.1,278.9c0.1-1.1,0.9-2.1,2.1-2.1c1.2,0,1.9,0.9,1.9,2.1H110.1z
	 M120.1,275.9h-1.6v-0.7c0-0.7,0.3-1.1,1-1.1c0.3,0,0.5,0.1,0.6,0.1l0.3-0.9c-0.2-0.1-0.5-0.2-1-0.2c-1,0-2,0.6-2,1.8v1h-1.1v0.9
	h1.1v6.2h1.1v-6.2h1.6V275.9z M124.2,283.1c1.9,0,3.2-1.5,3.2-3.7c0-2.2-1.3-3.7-3.2-3.7c-1.9,0-3.2,1.5-3.2,3.7
	C121,281.7,122.3,283.1,124.2,283.1z M124.2,282.2c-1.5,0-2.1-1.3-2.1-2.7c0-1.4,0.7-2.7,2.1-2.7s2.1,1.3,2.1,2.7
	C126.3,280.9,125.7,282.2,124.2,282.2z M129.1,283h1.1v-4.5c0-1,0.8-1.7,1.8-1.7c0.3,0,0.6,0.1,0.7,0.1v-1.1c-0.1,0-0.4,0-0.6,0
	c-0.8,0-1.6,0.5-1.8,1.2h-0.1v-1.1h-1.1V283z M136,283.2c1.2,0,1.9-0.7,2.1-1.1h0.1v1h1.1v-4.7c0-2.3-1.7-2.5-2.6-2.5
	c-1.1,0-2.3,0.4-2.8,1.7l1,0.4c0.2-0.5,0.8-1.1,1.8-1.1c1,0,1.5,0.5,1.5,1.4v0c0,0.5-0.5,0.5-1.8,0.6c-1.3,0.2-2.8,0.5-2.8,2.1
	C133.6,282.4,134.6,283.2,136,283.2z M136.2,282.2c-0.9,0-1.5-0.4-1.5-1.1c0-0.8,0.8-1.1,1.6-1.2c0.5-0.1,1.7-0.2,1.9-0.4v1
	C138.2,281.3,137.5,282.2,136.2,282.2z M142.3,273.5h-1.1v9.5h1.1V273.5z M145.4,273.5h-1.1v9.5h1.1V273.5z M148.2,283.1
	c0.5,0,0.8-0.4,0.8-0.8s-0.4-0.8-0.8-0.8s-0.8,0.4-0.8,0.8S147.7,283.1,148.2,283.1z M152.1,278.7c0-1.2,0.8-1.9,1.8-1.9
	c1,0,1.6,0.7,1.6,1.8v4.4h1.1v-4.5c0-1.8-1-2.7-2.4-2.7c-1.1,0-1.7,0.5-2.1,1.2H152v-1.1H151v7.1h1.1V278.7z M161.6,283.1
	c1.4,0,2.5-0.7,2.8-1.8l-1.1-0.3c-0.3,0.7-0.9,1.1-1.8,1.1c-1.3,0-2.2-0.8-2.2-2.3h5.1v-0.5c0-2.6-1.6-3.5-3-3.5
	c-1.9,0-3.2,1.5-3.2,3.7C158.3,281.7,159.5,283.1,161.6,283.1z M159.4,278.9c0.1-1.1,0.9-2.1,2.1-2.1c1.2,0,1.9,0.9,1.9,2.1H159.4z
	 M169.2,275.9h-1.5v-1.7h-1.1v1.7h-1.1v0.9h1.1v4.4c0,1.2,1,1.8,1.9,1.8c0.4,0,0.7-0.1,0.8-0.1l-0.2-1c-0.1,0-0.2,0.1-0.5,0.1
	c-0.5,0-0.9-0.1-0.9-1.1v-4.1h1.5V275.9z M172.1,273.5H171v9.5h1.1V273.5z M174.1,283h1.1v-7.1h-1.1V283z M174.7,274.7
	c0.4,0,0.8-0.3,0.8-0.7c0-0.4-0.4-0.7-0.8-0.7c-0.4,0-0.8,0.3-0.8,0.7C173.9,274.4,174.2,274.7,174.7,274.7z M180.4,275.9h-1.6v-0.7
	c0-0.7,0.3-1.1,1-1.1c0.3,0,0.5,0.1,0.6,0.1l0.3-0.9c-0.2-0.1-0.5-0.2-1-0.2c-1,0-2,0.6-2,1.8v1h-1.1v0.9h1.1v6.2h1.1v-6.2h1.6
	V275.9z M182.6,285.7c1,0,1.7-0.5,2.1-1.6l3-8.1l-1.2,0l-2,5.7h-0.1l-2-5.7h-1.2l2.6,7.1l-0.2,0.6c-0.4,1.1-0.9,1.2-1.7,1l-0.3,1
	C181.9,285.6,182.2,285.7,182.6,285.7z M189.5,283.1c0.5,0,0.8-0.4,0.8-0.8s-0.4-0.8-0.8-0.8c-0.5,0-0.8,0.4-0.8,0.8
	S189,283.1,189.5,283.1z M194.4,283.2c1.2,0,1.9-0.7,2.1-1.1h0.1v1h1.1v-4.7c0-2.3-1.7-2.5-2.6-2.5c-1.1,0-2.3,0.4-2.8,1.7l1,0.4
	c0.2-0.5,0.8-1.1,1.8-1.1c1,0,1.5,0.5,1.5,1.4v0c0,0.5-0.5,0.5-1.8,0.6c-1.3,0.2-2.8,0.5-2.8,2.1C191.9,282.4,193,283.2,194.4,283.2
	z M194.5,282.2c-0.9,0-1.5-0.4-1.5-1.1c0-0.8,0.8-1.1,1.6-1.2c0.5-0.1,1.7-0.2,1.9-0.4v1C196.5,281.3,195.8,282.2,194.5,282.2z
	 M199.6,285.7h1.1v-3.7h0.1c0.2,0.4,0.7,1.2,2.1,1.2c1.8,0,3-1.4,3-3.7c0-2.2-1.2-3.7-3-3.7c-1.4,0-1.8,0.8-2,1.2h-0.1v-1.1h-1.1
	V285.7z M200.7,279.5c0-1.6,0.7-2.7,2-2.7c1.4,0,2.1,1.2,2.1,2.7c0,1.5-0.7,2.7-2.1,2.7C201.4,282.2,200.7,281.1,200.7,279.5z
	 M207.5,285.7h1.1v-3.7h0.1c0.2,0.4,0.7,1.2,2.1,1.2c1.8,0,3-1.4,3-3.7c0-2.2-1.2-3.7-3-3.7c-1.4,0-1.8,0.8-2.1,1.2h-0.1v-1.1h-1.1
	V285.7z M208.6,279.5c0-1.6,0.7-2.7,2-2.7c1.4,0,2.1,1.2,2.1,2.7c0,1.5-0.7,2.7-2.1,2.7C209.3,282.2,208.6,281.1,208.6,279.5z"/>
<path class="st3" d="M95.1,298.9h-1.7l4.8,13.1h1.6l4.8-13.1H103l-3.9,11H99L95.1,298.9z M106.5,312h1.5v-9.8h-1.5V312z
	 M107.3,300.5c0.6,0,1.1-0.5,1.1-1c0-0.6-0.5-1-1.1-1c-0.6,0-1.1,0.5-1.1,1C106.2,300.1,106.7,300.5,107.3,300.5z M117.8,304.4
	c-0.5-1.4-1.5-2.3-3.5-2.3c-2.1,0-3.6,1.2-3.6,2.8c0,1.4,0.8,2.3,2.6,2.7l1.6,0.4c1,0.2,1.5,0.7,1.5,1.4c0,0.8-0.9,1.5-2.3,1.5
	c-1.2,0-2-0.5-2.3-1.6l-1.4,0.4c0.4,1.7,1.7,2.6,3.7,2.6c2.3,0,3.8-1.2,3.8-2.9c0-1.4-0.9-2.2-2.6-2.7l-1.5-0.4
	c-1.2-0.3-1.7-0.7-1.7-1.4c0-0.8,0.9-1.5,2.1-1.5c1.3,0,1.9,0.7,2.1,1.4L117.8,304.4z M120.2,312h1.5v-9.8h-1.5V312z M121,300.5
	c0.6,0,1.1-0.5,1.1-1c0-0.6-0.5-1-1.1-1s-1.1,0.5-1.1,1C119.9,300.1,120.4,300.5,121,300.5z M128.8,302.2h-2.1v-2.4h-1.5v2.4h-1.5
	v1.3h1.5v6.1c0,1.7,1.4,2.5,2.7,2.5c0.6,0,0.9-0.1,1.1-0.2l-0.3-1.4c-0.1,0-0.3,0.1-0.7,0.1c-0.7,0-1.3-0.2-1.3-1.5v-5.7h2.1V302.2z
	 M135,312.2c2,0,3.5-1,3.9-2.5l-1.5-0.4c-0.4,1-1.3,1.5-2.5,1.5c-1.8,0-3-1.1-3.1-3.2h7.1V307c0-3.7-2.2-4.9-4.2-4.9
	c-2.7,0-4.4,2.1-4.4,5.1S132.2,312.2,135,312.2z M132,306.3c0.1-1.5,1.2-2.9,2.9-2.9c1.6,0,2.7,1.2,2.7,2.9H132z M145.1,312.2
	c1.9,0,2.5-1.2,2.9-1.7h0.2v1.5h1.5v-13.1h-1.5v4.8H148c-0.3-0.5-0.9-1.7-2.8-1.7c-2.5,0-4.2,2-4.2,5.1
	C140.9,310.2,142.7,312.2,145.1,312.2z M145.3,310.8c-1.9,0-2.9-1.7-2.9-3.8c0-2.1,0.9-3.7,2.9-3.7c1.8,0,2.8,1.5,2.8,3.7
	C148.1,309.3,147.1,310.8,145.3,310.8z M161.9,302.2h-2.1v-2.4h-1.5v2.4h-1.5v1.3h1.5v6.1c0,1.7,1.4,2.5,2.7,2.5
	c0.6,0,0.9-0.1,1.1-0.2l-0.3-1.4c-0.1,0-0.3,0.1-0.7,0.1c-0.7,0-1.3-0.2-1.3-1.5v-5.7h2.1V302.2z M164.2,312h1.5v-6.2
	c0-1.3,1-2.3,2.5-2.3c0.4,0,0.8,0.1,0.9,0.1v-1.5c-0.2,0-0.6,0-0.8,0c-1.2,0-2.2,0.7-2.6,1.6h-0.1v-1.5h-1.5V312z M174.7,312.2
	c2,0,3.5-1,3.9-2.5l-1.5-0.4c-0.4,1-1.3,1.5-2.5,1.5c-1.8,0-3-1.1-3.1-3.2h7.1V307c0-3.7-2.2-4.9-4.2-4.9c-2.7,0-4.4,2.1-4.4,5.1
	S171.9,312.2,174.7,312.2z M171.6,306.3c0.1-1.5,1.2-2.9,2.9-2.9c1.6,0,2.7,1.2,2.7,2.9H171.6z M182.6,306.1c0-1.7,1.1-2.7,2.5-2.7
	c1.4,0,2.2,0.9,2.2,2.5v6.1h1.5v-6.2c0-2.5-1.3-3.7-3.3-3.7c-1.5,0-2.4,0.7-2.9,1.7h-0.1v-1.5h-1.5v9.8h1.5V306.1z M195.3,312.2
	c1.9,0,2.5-1.2,2.9-1.7h0.2v1.5h1.5v-13.1h-1.5v4.8h-0.1c-0.3-0.5-0.9-1.7-2.8-1.7c-2.5,0-4.2,2-4.2,5.1
	C191.1,310.2,192.8,312.2,195.3,312.2z M195.5,310.8c-1.9,0-2.9-1.7-2.9-3.8c0-2.1,0.9-3.7,2.9-3.7c1.8,0,2.8,1.5,2.8,3.7
	C198.3,309.3,197.3,310.8,195.5,310.8z M211.5,312.2c1.9,0,2.5-1.2,2.9-1.7h0.2v1.5h1.5v-13.1h-1.5v4.8h-0.1
	c-0.3-0.5-0.9-1.7-2.8-1.7c-2.5,0-4.2,2-4.2,5.1C207.4,310.2,209.1,312.2,211.5,312.2z M211.7,310.8c-1.9,0-2.9-1.7-2.9-3.8
	c0-2.1,0.9-3.7,2.9-3.7c1.8,0,2.8,1.5,2.8,3.7C214.6,309.3,213.6,310.8,211.7,310.8z M223.1,312.2c2,0,3.5-1,3.9-2.5l-1.5-0.4
	c-0.4,1-1.3,1.5-2.5,1.5c-1.8,0-3-1.1-3.1-3.2h7.1V307c0-3.7-2.2-4.9-4.2-4.9c-2.7,0-4.4,2.1-4.4,5.1S220.3,312.2,223.1,312.2z
	 M220.1,306.3c0.1-1.5,1.2-2.9,2.9-2.9c1.6,0,2.7,1.2,2.7,2.9H220.1z M236.4,304.4c-0.5-1.4-1.5-2.3-3.5-2.3c-2.1,0-3.6,1.2-3.6,2.8
	c0,1.4,0.8,2.3,2.6,2.7l1.6,0.4c1,0.2,1.5,0.7,1.5,1.4c0,0.8-0.9,1.5-2.3,1.5c-1.2,0-2-0.5-2.3-1.6l-1.4,0.4
	c0.4,1.7,1.7,2.6,3.7,2.6c2.3,0,3.8-1.2,3.8-2.9c0-1.4-0.9-2.2-2.6-2.7l-1.5-0.4c-1.2-0.3-1.7-0.7-1.7-1.4c0-0.8,0.9-1.5,2.1-1.5
	c1.3,0,1.9,0.7,2.1,1.4L236.4,304.4z M238.9,312h1.5v-9.8h-1.5V312z M239.7,300.5c0.6,0,1.1-0.5,1.1-1c0-0.6-0.5-1-1.1-1
	c-0.6,0-1.1,0.5-1.1,1C238.6,300.1,239.1,300.5,239.7,300.5z M247.1,315.9c2.4,0,4.2-1.1,4.2-3.6v-10.1h-1.5v1.6h-0.2
	c-0.3-0.5-0.9-1.7-2.9-1.7c-2.5,0-4.2,2-4.2,5c0,3.1,1.8,4.8,4.2,4.8c1.9,0,2.5-1.1,2.9-1.7h0.1v2c0,1.6-1.2,2.4-2.7,2.4
	c-1.8,0-2.4-0.9-2.8-1.5l-1.2,0.8C243.7,314.9,244.9,315.9,247.1,315.9z M247.1,310.5c-1.9,0-2.9-1.4-2.9-3.5c0-2,0.9-3.6,2.9-3.6
	c1.8,0,2.8,1.5,2.8,3.6C249.9,309.2,248.9,310.5,247.1,310.5z M255.6,306.1c0-1.7,1.1-2.7,2.5-2.7c1.4,0,2.2,0.9,2.2,2.5v6.1h1.5
	v-6.2c0-2.5-1.3-3.7-3.3-3.7c-1.5,0-2.4,0.7-2.9,1.7h-0.1v-1.5h-1.5v9.8h1.5V306.1z M278.5,298.9v8.5c0,1.9-1.3,3.3-3.5,3.3
	c-2.2,0-3.5-1.4-3.5-3.3v-8.5h-1.6v8.7c0,2.7,2,4.7,5.1,4.7c3.1,0,5.1-2,5.1-4.7v-8.7H278.5z M284.9,298.9h-1.6V312h1.6V298.9z"/>
<path class="st15" d="M95.9,339H97l2.1-7.5h0.1l2.1,7.5h1.2l2.6-9.5h-1.2l-2,7.7h-0.1l-2-7.7h-1.3l-2,7.7h-0.1l-2-7.7h-1.2L95.9,339
	z M106.3,339h1.1v-7.1h-1.1V339z M106.9,330.7c0.4,0,0.8-0.3,0.8-0.7c0-0.4-0.4-0.7-0.8-0.7c-0.4,0-0.8,0.3-0.8,0.7
	C106.1,330.4,106.5,330.7,106.9,330.7z M112.5,331.9H111v-1.7h-1.1v1.7h-1.1v0.9h1.1v4.4c0,1.2,1,1.8,1.9,1.8c0.4,0,0.7-0.1,0.8-0.1
	l-0.2-1c-0.1,0-0.2,0.1-0.5,0.1c-0.5,0-0.9-0.1-0.9-1.1v-4.1h1.5V331.9z M115.4,334.7c0-1.2,0.8-1.9,1.9-1.9c1,0,1.6,0.6,1.6,1.8
	v4.4h1.1v-4.5c0-1.8-1-2.7-2.4-2.7c-1.1,0-1.8,0.5-2.1,1.2h-0.1v-3.5h-1.1v9.5h1.1V334.7z M126.7,329.5h-1.1v9.5h1.1V329.5z
	 M131.6,339.1c1.9,0,3.2-1.5,3.2-3.7c0-2.2-1.3-3.7-3.2-3.7c-1.9,0-3.2,1.5-3.2,3.7C128.4,337.7,129.7,339.1,131.6,339.1z
	 M131.6,338.2c-1.5,0-2.1-1.3-2.1-2.7c0-1.4,0.7-2.7,2.1-2.7c1.5,0,2.1,1.3,2.1,2.7C133.7,336.9,133.1,338.2,131.6,338.2z
	 M137.8,339h1.1l1.6-5.4h0.1l1.6,5.4h1.1l2.2-7.1h-1.1l-1.5,5.4h-0.1l-1.5-5.4h-1.2l-1.5,5.4h-0.1l-1.5-5.4h-1.1L137.8,339z
	 M150.6,339h1.1v-1.1h0.1c0.2,0.4,0.7,1.2,2.1,1.2c1.8,0,3-1.4,3-3.7c0-2.2-1.2-3.7-3-3.7c-1.4,0-1.8,0.8-2,1.2h-0.1v-3.5h-1.1V339z
	 M151.7,335.5c0-1.6,0.7-2.7,2-2.7c1.4,0,2.1,1.2,2.1,2.7c0,1.5-0.7,2.7-2.1,2.7C152.4,338.2,151.7,337.1,151.7,335.5z M163,336.1
	c0,1.3-1,1.9-1.8,1.9c-0.9,0-1.6-0.7-1.6-1.7v-4.4h-1.1v4.5c0,1.8,1,2.7,2.3,2.7c1.1,0,1.8-0.6,2.1-1.3h0.1v1.2h1.1v-7.1H163V336.1z
	 M168.8,339.1c1.4,0,1.8-0.9,2.1-1.2h0.1v1.1h1.1v-9.5h-1.1v3.5h-0.1c-0.2-0.4-0.7-1.2-2.1-1.2c-1.8,0-3,1.4-3,3.7
	C165.7,337.7,167,339.1,168.8,339.1z M168.9,338.2c-1.4,0-2.1-1.2-2.1-2.7c0-1.5,0.7-2.7,2.1-2.7c1.3,0,2,1.1,2,2.7
	C170.9,337.1,170.2,338.2,168.9,338.2z M177,341.8c1.7,0,3.1-0.8,3.1-2.6v-7.3H179v1.1h-0.1c-0.2-0.4-0.7-1.2-2.1-1.2
	c-1.8,0-3,1.4-3,3.6c0,2.2,1.3,3.5,3,3.5c1.4,0,1.8-0.8,2.1-1.2h0.1v1.4c0,1.2-0.8,1.7-2,1.7c-1.3,0-1.7-0.7-2-1.1l-0.9,0.6
	C174.6,341.1,175.4,341.8,177,341.8z M177,337.9c-1.4,0-2.1-1-2.1-2.5c0-1.4,0.7-2.6,2.1-2.6c1.3,0,2,1.1,2,2.6
	C179,337,178.3,337.9,177,337.9z M185.1,339.1c1.4,0,2.5-0.7,2.8-1.8l-1.1-0.3c-0.3,0.7-0.9,1.1-1.8,1.1c-1.3,0-2.2-0.8-2.2-2.3h5.1
	v-0.5c0-2.6-1.6-3.5-3-3.5c-1.9,0-3.2,1.5-3.2,3.7C181.7,337.7,183,339.1,185.1,339.1z M182.8,334.9c0.1-1.1,0.9-2.1,2.1-2.1
	c1.2,0,1.9,0.9,1.9,2.1H182.8z M192.7,331.9h-1.5v-1.7h-1.1v1.7h-1.1v0.9h1.1v4.4c0,1.2,1,1.8,1.9,1.8c0.4,0,0.7-0.1,0.8-0.1l-0.2-1
	c-0.1,0-0.2,0.1-0.5,0.1c-0.5,0-0.9-0.1-0.9-1.1v-4.1h1.5V331.9z M198.7,341.7c1,0,1.7-0.5,2.1-1.6l3-8.1l-1.2,0l-2,5.7h-0.1l-2-5.7
	h-1.2l2.6,7.1l-0.2,0.6c-0.4,1.1-0.9,1.2-1.7,1l-0.3,1C198,341.6,198.4,341.7,198.7,341.7z M207.9,339.1c1.9,0,3.2-1.5,3.2-3.7
	c0-2.2-1.3-3.7-3.2-3.7c-1.9,0-3.2,1.5-3.2,3.7C204.7,337.7,206,339.1,207.9,339.1z M207.9,338.2c-1.5,0-2.1-1.3-2.1-2.7
	c0-1.4,0.7-2.7,2.1-2.7c1.5,0,2.1,1.3,2.1,2.7C210,336.9,209.4,338.2,207.9,338.2z M217.2,336.1c0,1.3-1,1.9-1.8,1.9
	c-0.9,0-1.6-0.7-1.6-1.7v-4.4h-1.1v4.5c0,1.8,1,2.7,2.3,2.7c1.1,0,1.8-0.6,2.1-1.3h0.1v1.2h1.1v-7.1h-1.1V336.1z M225.1,334.7
	c0-1.2,0.8-1.9,1.9-1.9c1,0,1.6,0.6,1.6,1.8v4.4h1.1v-4.5c0-1.8-1-2.7-2.4-2.7c-1.1,0-1.8,0.5-2.1,1.2h-0.1v-3.5H224v9.5h1.1V334.7z
	 M233.8,339.2c1.2,0,1.9-0.7,2.1-1.1h0.1v1h1.1v-4.7c0-2.3-1.7-2.5-2.6-2.5c-1.1,0-2.3,0.4-2.8,1.7l1,0.4c0.2-0.5,0.8-1.1,1.8-1.1
	c1,0,1.5,0.5,1.5,1.4v0c0,0.5-0.5,0.5-1.8,0.6c-1.3,0.2-2.8,0.5-2.8,2.1C231.3,338.4,232.4,339.2,233.8,339.2z M233.9,338.2
	c-0.9,0-1.5-0.4-1.5-1.1c0-0.8,0.8-1.1,1.6-1.2c0.5-0.1,1.7-0.2,1.9-0.4v1C235.9,337.3,235.2,338.2,233.9,338.2z M244.5,331.9h-1.2
	l-2,5.7h-0.1l-2-5.7h-1.2l2.6,7.1h1.1L244.5,331.9z M248.7,339.1c1.4,0,2.5-0.7,2.8-1.8l-1.1-0.3c-0.3,0.7-0.9,1.1-1.8,1.1
	c-1.3,0-2.2-0.8-2.2-2.3h5.1v-0.5c0-2.6-1.6-3.5-3-3.5c-1.9,0-3.2,1.5-3.2,3.7C245.4,337.7,246.6,339.1,248.7,339.1z M246.5,334.9
	c0.1-1.1,0.9-2.1,2.1-2.1c1.2,0,1.9,0.9,1.9,2.1H246.5z M94,357.7h1.1v-3.7h0.1c0.2,0.4,0.7,1.2,2.1,1.2c1.8,0,3-1.4,3-3.7
	c0-2.2-1.2-3.7-3-3.7c-1.4,0-1.8,0.8-2,1.2H95v-1.1H94V357.7z M95.1,351.5c0-1.6,0.7-2.7,2-2.7c1.4,0,2.1,1.2,2.1,2.7
	c0,1.5-0.7,2.7-2.1,2.7C95.8,354.2,95.1,353.1,95.1,351.5z M101.9,355h1.1v-4.5c0-1,0.8-1.7,1.8-1.7c0.3,0,0.6,0.1,0.7,0.1v-1.1
	c-0.1,0-0.4,0-0.6,0c-0.8,0-1.6,0.5-1.8,1.2H103v-1.1h-1.1V355z M109.4,355.1c1.9,0,3.2-1.5,3.2-3.7c0-2.2-1.3-3.7-3.2-3.7
	c-1.9,0-3.2,1.5-3.2,3.7C106.2,353.7,107.5,355.1,109.4,355.1z M109.4,354.2c-1.5,0-2.1-1.3-2.1-2.7c0-1.4,0.7-2.7,2.1-2.7
	s2.1,1.3,2.1,2.7C111.5,352.9,110.9,354.2,109.4,354.2z M117.5,347.9h-1.6v-0.7c0-0.7,0.3-1.1,1-1.1c0.3,0,0.5,0.1,0.6,0.1l0.3-0.9
	c-0.2-0.1-0.5-0.2-1-0.2c-1,0-2,0.6-2,1.8v1h-1.1v0.9h1.1v6.2h1.1v-6.2h1.6V347.9z M121.7,355.1c1.4,0,2.5-0.7,2.8-1.8l-1.1-0.3
	c-0.3,0.7-0.9,1.1-1.8,1.1c-1.3,0-2.2-0.8-2.2-2.3h5.1v-0.5c0-2.6-1.6-3.5-3-3.5c-1.9,0-3.2,1.5-3.2,3.7
	C118.4,353.7,119.6,355.1,121.7,355.1z M119.5,350.9c0.1-1.1,0.9-2.1,2.1-2.1c1.2,0,1.9,0.9,1.9,2.1H119.5z M131.3,349.5
	c-0.3-1-1.1-1.7-2.5-1.7c-1.5,0-2.6,0.8-2.6,2c0,1,0.6,1.6,1.9,1.9l1.2,0.3c0.7,0.2,1.1,0.5,1.1,1c0,0.6-0.6,1.1-1.7,1.1
	c-0.9,0-1.4-0.4-1.6-1.1l-1,0.3c0.3,1.2,1.2,1.8,2.7,1.8c1.6,0,2.8-0.9,2.8-2.1c0-1-0.6-1.6-1.9-1.9l-1.1-0.3
	c-0.8-0.2-1.2-0.5-1.2-1c0-0.6,0.6-1.1,1.5-1.1c1,0,1.3,0.5,1.5,1L131.3,349.5z M138.1,349.5c-0.3-1-1.1-1.7-2.5-1.7
	c-1.5,0-2.6,0.8-2.6,2c0,1,0.6,1.6,1.9,1.9l1.2,0.3c0.7,0.2,1.1,0.5,1.1,1c0,0.6-0.6,1.1-1.7,1.1c-0.9,0-1.4-0.4-1.6-1.1l-1,0.3
	c0.3,1.2,1.2,1.8,2.7,1.8c1.6,0,2.8-0.9,2.8-2.1c0-1-0.6-1.6-1.9-1.9l-1.1-0.3c-0.8-0.2-1.2-0.5-1.2-1c0-0.6,0.6-1.1,1.5-1.1
	c1,0,1.3,0.5,1.5,1L138.1,349.5z M139.8,355h1.1v-7.1h-1.1V355z M140.4,346.7c0.4,0,0.8-0.3,0.8-0.7c0-0.4-0.4-0.7-0.8-0.7
	s-0.8,0.3-0.8,0.7C139.6,346.4,140,346.7,140.4,346.7z M145.8,355.1c1.9,0,3.2-1.5,3.2-3.7c0-2.2-1.3-3.7-3.2-3.7
	c-1.9,0-3.2,1.5-3.2,3.7C142.6,353.7,143.9,355.1,145.8,355.1z M145.8,354.2c-1.5,0-2.1-1.3-2.1-2.7c0-1.4,0.7-2.7,2.1-2.7
	c1.5,0,2.1,1.3,2.1,2.7C147.9,352.9,147.3,354.2,145.8,354.2z M151.8,350.7c0-1.2,0.8-1.9,1.8-1.9c1,0,1.6,0.7,1.6,1.8v4.4h1.1v-4.5
	c0-1.8-1-2.7-2.4-2.7c-1.1,0-1.7,0.5-2.1,1.2h-0.1v-1.1h-1.1v7.1h1.1V350.7z M160.4,355.2c1.2,0,1.9-0.7,2.1-1.1h0.1v1h1.1v-4.7
	c0-2.3-1.7-2.5-2.6-2.5c-1.1,0-2.3,0.4-2.8,1.7l1,0.4c0.2-0.5,0.8-1.1,1.8-1.1c1,0,1.5,0.5,1.5,1.4v0c0,0.5-0.5,0.5-1.8,0.6
	c-1.3,0.2-2.8,0.5-2.8,2.1C158,354.4,159,355.2,160.4,355.2z M160.5,354.2c-0.9,0-1.5-0.4-1.5-1.1c0-0.8,0.8-1.1,1.6-1.2
	c0.5-0.1,1.7-0.2,1.9-0.4v1C162.5,353.3,161.8,354.2,160.5,354.2z M166.7,345.5h-1.1v9.5h1.1V345.5z M174.4,355.2
	c1.2,0,1.9-0.7,2.1-1.1h0.1v1h1.1v-4.7c0-2.3-1.7-2.5-2.6-2.5c-1.1,0-2.3,0.4-2.8,1.7l1,0.4c0.2-0.5,0.8-1.1,1.8-1.1
	c1,0,1.5,0.5,1.5,1.4v0c0,0.5-0.5,0.5-1.8,0.6c-1.3,0.2-2.8,0.5-2.8,2.1C172,354.4,173.1,355.2,174.4,355.2z M174.6,354.2
	c-0.9,0-1.5-0.4-1.5-1.1c0-0.8,0.8-1.1,1.6-1.2c0.5-0.1,1.7-0.2,1.9-0.4v1C176.6,353.3,175.9,354.2,174.6,354.2z M179.7,357.7h1.1
	v-3.7h0.1c0.2,0.4,0.7,1.2,2.1,1.2c1.8,0,3-1.4,3-3.7c0-2.2-1.2-3.7-3-3.7c-1.4,0-1.8,0.8-2,1.2h-0.1v-1.1h-1.1V357.7z M180.7,351.5
	c0-1.6,0.7-2.7,2-2.7c1.4,0,2.1,1.2,2.1,2.7c0,1.5-0.7,2.7-2.1,2.7C181.5,354.2,180.7,353.1,180.7,351.5z M187.6,357.7h1.1v-3.7h0.1
	c0.2,0.4,0.7,1.2,2.1,1.2c1.8,0,3-1.4,3-3.7c0-2.2-1.2-3.7-3-3.7c-1.4,0-1.8,0.8-2,1.2h-0.1v-1.1h-1.1V357.7z M188.7,351.5
	c0-1.6,0.7-2.7,2-2.7c1.4,0,2.1,1.2,2.1,2.7c0,1.5-0.7,2.7-2.1,2.7C189.4,354.2,188.7,353.1,188.7,351.5z"/>
<g>
	<path d="M175.1,107.7l0.2-29.1H172v37c4.5-1.2,9-1.9,13.6-1.9c4.2,0,8.4,0.6,12.6,2c-2.6-2.1-5.5-3.7-8.7-4.7
		c-3.9-1.3-8.2-1.7-12.5-1.3c-1,0.1-1.8-0.7-1.9-1.6C175.1,107.9,175.1,107.8,175.1,107.7L175.1,107.7z M223.3,77c0-0.1,0-0.2,0-0.3
		c0-0.1,0-0.2,0-0.3v-5.9c-4.1-0.4-8.4,0.1-12.1,1.5c-3.5,1.3-6.5,3.5-8.4,6.6v33.6c3-2,6.1-3.7,9.3-4.8c3.6-1.3,7.4-1.9,11.2-1.6
		V77L223.3,77z M226.9,75h4.8c1,0,1.8,0.8,1.8,1.8v41.1c0,1-0.8,1.8-1.8,1.8c-0.2,0-0.4,0-0.6-0.1c-5-1.4-9.9-2.4-14.8-2.4
		c-4.8,0-9.6,0.8-14.3,2.9c-0.3,0.2-0.7,0.3-1,0.3c-0.4,0-0.7-0.1-1-0.3c-4.8-2.1-9.6-3-14.3-2.9c-4.9,0-9.8,1-14.8,2.4
		c-0.2,0.1-0.4,0.1-0.6,0.1c-1,0-1.8-0.8-1.8-1.8V76.8c0-1,0.8-1.8,1.8-1.8h5.1l0-6c0-0.9,0.6-1.6,1.4-1.7l0,0
		c4.7-1,10.4-0.7,15.4,1.2c3.5,1.3,6.6,3.4,8.9,6.5c2.3-2.8,5.4-4.9,8.9-6.2c4.8-1.8,10.2-2.2,15.4-1.5c0.9,0.1,1.5,0.9,1.5,1.8l0,0
		L226.9,75L226.9,75z M204.5,115.4c3.9-1.2,7.9-1.7,11.8-1.7c4.6,0,9.1,0.8,13.6,1.9v-37h-3.1v29.3c0,1-0.8,1.8-1.8,1.8
		c-0.1,0-0.3,0-0.4,0c-3.9-0.6-7.7-0.1-11.4,1.2C210.4,111.8,207.4,113.4,204.5,115.4L204.5,115.4z M199.2,111.9V78.6
		c-1.9-3.3-4.9-5.5-8.3-6.8c-3.9-1.5-8.2-1.8-12-1.3l-0.2,35.4c4.1-0.1,8.2,0.4,12,1.6C193.7,108.5,196.6,110,199.2,111.9
		L199.2,111.9z"/>
</g>
</svg>
